<?xml version="1.0" encoding="UTF-8"?>
<svg width="818pt" height="268pt" version="1.2" viewBox="0 0 818 268" xmlns="http://www.w3.org/2000/svg" xmlns:cc="http://creativecommons.org/ns#" xmlns:dc="http://purl.org/dc/elements/1.1/" xmlns:rdf="http://www.w3.org/1999/02/22-rdf-syntax-ns#" xmlns:xlink="http://www.w3.org/1999/xlink">
<metadata>
<rdf:RDF>
<cc:Work rdf:about="">
<dc:format>image/svg+xml</dc:format>
<dc:type rdf:resource="http://purl.org/dc/dcmitype/StillImage"/>
<dc:title/>
</cc:Work>
</rdf:RDF>
</metadata>
<defs>
<symbol id="h" overflow="visible">
<path d="m1.4062-13.25h2.125l6.6875 10.734v-10.734h1.7188v13.25h-2.0156l-6.7969-10.719v10.719h-1.7188z"/>
</symbol>
<symbol id="t" overflow="visible">
<path d="m2.5469 0h-2.1719l4.75-6.7969-4.4531-6.4531h2.25l3.3906 5.0781 3.3594-5.0781h2.1406l-4.4531 6.4531 4.6562 6.7969h-2.2188l-3.5781-5.4531z"/>
</symbol>
<symbol id="a" overflow="visible"></symbol>
<symbol id="b" overflow="visible"></symbol>
<symbol id="bb" overflow="visible">
<path d="m1.4688-7.625v-1.0312c0.97656-0.09375 1.6602-0.25 2.0469-0.46875 0.38281-0.22656 0.67188-0.75781 0.85938-1.5938h1.0781v10.719h-1.4531v-7.625z"/>
</symbol>
<symbol id="ba" overflow="visible">
<path d="m4 0.29688c-1.2734 0-2.1953-0.34766-2.7656-1.0469-0.57422-0.69531-0.85938-1.5508-0.85938-2.5625h1.4062c0.0625 0.69922 0.19141 1.2109 0.39062 1.5312 0.35156 0.5625 0.98828 0.84375 1.9062 0.84375 0.70703 0 1.2734-0.1875 1.7031-0.5625 0.4375-0.38281 0.65625-0.87891 0.65625-1.4844 0-0.73828-0.23047-1.2539-0.6875-1.5469-0.44922-0.30078-1.0781-0.45312-1.8906-0.45312-0.085937 0-0.17188 0.007813-0.26562 0.015625h-0.28125v-1.1875c0.13281 0.011719 0.25 0.023438 0.34375 0.03125h0.3125c0.50781 0 0.92578-0.078125 1.25-0.23438 0.57031-0.28125 0.85938-0.78516 0.85938-1.5156 0-0.53125-0.19531-0.94141-0.57812-1.2344-0.375-0.28906-0.82031-0.4375-1.3281-0.4375-0.90625 0-1.5312 0.30469-1.875 0.90625-0.1875 0.33594-0.29688 0.80469-0.32812 1.4062h-1.3281c0-0.80078 0.16016-1.4844 0.48438-2.0469 0.55078-1 1.5195-1.5 2.9062-1.5 1.0938 0 1.9414 0.24609 2.5469 0.73438 0.60156 0.49219 0.90625 1.1992 0.90625 2.125 0 0.66797-0.18359 1.2031-0.54688 1.6094-0.21875 0.26172-0.5 0.46094-0.84375 0.59375 0.5625 0.15625 1 0.46094 1.3125 0.90625 0.32031 0.44922 0.48438 0.99219 0.48438 1.625 0 1.0312-0.33984 1.8711-1.0156 2.5156-0.67969 0.64844-1.6367 0.96875-2.875 0.96875z"/>
</symbol>
<symbol id="az" overflow="visible">
<path d="m0.48438 0c0.050781-0.92578 0.24219-1.7344 0.57812-2.4219 0.33203-0.6875 0.97656-1.3125 1.9375-1.875l1.4531-0.82812c0.64453-0.375 1.0977-0.69531 1.3594-0.96875 0.40625-0.40625 0.60938-0.87891 0.60938-1.4219 0-0.625-0.1875-1.1172-0.5625-1.4844-0.375-0.375-0.875-0.5625-1.5-0.5625-0.92969 0-1.5703 0.35547-1.9219 1.0625-0.1875 0.375-0.29297 0.89844-0.3125 1.5625h-1.375c0.007812-0.9375 0.17969-1.7031 0.51562-2.2969 0.58203-1.0391 1.6133-1.5625 3.0938-1.5625 1.2383 0 2.1406 0.33594 2.7031 1 0.57031 0.66797 0.85938 1.4062 0.85938 2.2188 0 0.86719-0.30469 1.6055-0.90625 2.2188-0.35547 0.35547-0.98438 0.78125-1.8906 1.2812l-1.0312 0.57812c-0.49219 0.27344-0.875 0.52734-1.1562 0.76562-0.5 0.4375-0.82031 0.92188-0.95312 1.4531h5.8906v1.2812z"/>
</symbol>
<symbol id="ay" overflow="visible">
<path d="m4.7969-12.812v10.125h2.9844c1.5312 0 2.5977-0.75391 3.2031-2.2656 0.32031-0.83203 0.48438-1.8164 0.48438-2.9531 0-1.582-0.25-2.7969-0.75-3.6406-0.49219-0.84375-1.4688-1.2656-2.9375-1.2656zm3.5312-2.7031c0.95703 0.023437 1.7578 0.13672 2.4062 0.34375 1.082 0.35547 1.9609 1.0117 2.6406 1.9688 0.53906 0.77344 0.90625 1.6055 1.0938 2.5 0.19531 0.89844 0.29688 1.7578 0.29688 2.5781 0 2.0547-0.41406 3.7969-1.2344 5.2344-1.125 1.9297-2.8594 2.8906-5.2031 2.8906h-6.6875v-15.516z"/>
</symbol>
<symbol id="k" overflow="visible">
<path d="m4.4844-12.828h-3.0469v-2.7812h3.0469zm-3.0469 1.3594h3.0469v11.469h-3.0469z"/>
</symbol>
<symbol id="au" overflow="visible">
<path d="m3.7344-3.6562c0.0625 0.53125 0.19531 0.90625 0.40625 1.125 0.375 0.40625 1.0664 0.60938 2.0781 0.60938 0.58203 0 1.0469-0.085937 1.3906-0.26562 0.35156-0.17578 0.53125-0.44141 0.53125-0.79688 0-0.33203-0.14062-0.58594-0.42188-0.76562-0.28125-0.17578-1.3242-0.47656-3.125-0.90625-1.3047-0.32031-2.2188-0.72266-2.75-1.2031-0.53125-0.47656-0.79688-1.1641-0.79688-2.0625 0-1.0625 0.41016-1.9727 1.2344-2.7344 0.83203-0.75781 2.0039-1.1406 3.5156-1.1406 1.4375 0 2.6016 0.28906 3.5 0.85938 0.90625 0.57422 1.4258 1.5625 1.5625 2.9688h-3c-0.042969-0.38281-0.15234-0.69141-0.32812-0.92188-0.33594-0.40625-0.89844-0.60938-1.6875-0.60938-0.65625 0-1.125 0.10547-1.4062 0.3125-0.27344 0.19922-0.40625 0.43359-0.40625 0.70312 0 0.34375 0.14453 0.59375 0.4375 0.75 0.30078 0.16797 1.3477 0.44531 3.1406 0.82812 1.1875 0.28125 2.0781 0.71094 2.6719 1.2812 0.59375 0.57422 0.89062 1.293 0.89062 2.1562 0 1.1367-0.42188 2.0625-1.2656 2.7812s-2.1523 1.0781-3.9219 1.0781c-1.8047 0-3.1367-0.38281-4-1.1406-0.86719-0.75781-1.2969-1.7266-1.2969-2.9062z"/>
</symbol>
<symbol id="j" overflow="visible">
<path d="m0.21875-9.2344v-2.125h1.6094v-3.2031h2.9688v3.2031h1.8594v2.125h-1.8594v6.0625c0 0.46875 0.054687 0.76562 0.17188 0.89062 0.125 0.11719 0.48828 0.17188 1.0938 0.17188h0.28125c0.10156-0.007813 0.20703-0.019531 0.3125-0.03125v2.25l-1.4219 0.046875c-1.418 0.050781-2.3867-0.19141-2.9062-0.73438-0.33594-0.34375-0.5-0.875-0.5-1.5938v-7.0625z"/>
</symbol>
<symbol id="at" overflow="visible">
<path d="m7.6406-11.734h0.125c0.039063 0 0.12891 0.007813 0.26562 0.015625v3.0781c-0.1875-0.03125-0.35547-0.046875-0.5-0.046875-0.14844-0.007812-0.26562-0.015625-0.35938-0.015625-1.2109 0-2.0234 0.39844-2.4375 1.1875-0.23047 0.4375-0.34375 1.1172-0.34375 2.0312v5.4844h-3.0156v-11.469h2.8594v2c0.45703-0.75781 0.85938-1.2812 1.2031-1.5625 0.5625-0.46875 1.2969-0.70312 2.2031-0.70312z"/>
</symbol>
<symbol id="as" overflow="visible">
<path d="m7.6094-11.719c1.5 0 2.6758 0.54688 3.5312 1.6406 0.85156 1.0859 1.2812 2.4844 1.2812 4.2031 0 1.7812-0.42188 3.2617-1.2656 4.4375-0.84375 1.168-2.0156 1.75-3.5156 1.75-0.94922 0-1.7148-0.19531-2.2969-0.57812-0.34375-0.21875-0.71484-0.60938-1.1094-1.1719v1.4375h-2.9375v-15.484h2.9844v5.5156c0.38281-0.53906 0.80078-0.94531 1.25-1.2188 0.53906-0.35156 1.2344-0.53125 2.0781-0.53125zm-0.78125 9.5469c0.76953 0 1.3672-0.3125 1.7969-0.9375 0.4375-0.625 0.65625-1.4414 0.65625-2.4531 0-0.8125-0.10938-1.4844-0.32812-2.0156-0.39844-1.0078-1.1328-1.5156-2.2031-1.5156-1.0938 0-1.8438 0.49609-2.25 1.4844-0.21094 0.52344-0.3125 1.1992-0.3125 2.0312 0 0.98047 0.21875 1.793 0.65625 2.4375 0.4375 0.64844 1.0977 0.96875 1.9844 0.96875z"/>
</symbol>
<symbol id="ar" overflow="visible">
<path d="m4.3906-11.469v6.9062c0 0.65625 0.078125 1.1523 0.23438 1.4844 0.26953 0.58594 0.80469 0.875 1.6094 0.875 1.0195 0 1.7227-0.41406 2.1094-1.25 0.19531-0.44531 0.29688-1.0391 0.29688-1.7812v-6.2344h3.0312v11.469h-2.9062v-1.625c-0.03125 0.042969-0.10547 0.15234-0.21875 0.32812-0.11719 0.16797-0.24609 0.32031-0.39062 0.45312-0.48047 0.42969-0.9375 0.71484-1.375 0.85938-0.4375 0.15625-0.94922 0.23438-1.5312 0.23438-1.6992 0-2.8438-0.60938-3.4375-1.8281-0.33594-0.67578-0.5-1.6719-0.5-2.9844v-6.9062z"/>
</symbol>
<symbol id="aq" overflow="visible">
<path d="m6.5469-2.1094c0.875 0 1.5469-0.3125 2.0156-0.9375 0.47656-0.625 0.71875-1.5156 0.71875-2.6719 0-1.1445-0.24219-2.0234-0.71875-2.6406-0.46875-0.625-1.1406-0.9375-2.0156-0.9375s-1.5547 0.3125-2.0312 0.9375c-0.46875 0.61719-0.70312 1.4961-0.70312 2.6406 0 1.1562 0.23438 2.0469 0.70312 2.6719 0.47656 0.625 1.1562 0.9375 2.0312 0.9375zm5.875-3.6094c0 1.6875-0.48438 3.1328-1.4531 4.3281-0.96875 1.1992-2.4375 1.7969-4.4062 1.7969-1.9805 0-3.4531-0.59766-4.4219-1.7969-0.96875-1.1953-1.4531-2.6406-1.4531-4.3281 0-1.6562 0.48438-3.0859 1.4531-4.2969 0.96875-1.2188 2.4414-1.8281 4.4219-1.8281 1.9688 0 3.4375 0.60938 4.4062 1.8281 0.96875 1.2109 1.4531 2.6406 1.4531 4.2969z"/>
</symbol>
<symbol id="y" overflow="visible">
<path d="m7.7656-11.734c1.1758 0 2.1406 0.3125 2.8906 0.9375 0.75781 0.61719 1.1406 1.6406 1.1406 3.0781v7.7188h-3.0625v-6.9688c0-0.60156-0.085937-1.0664-0.25-1.3906-0.29297-0.59375-0.85547-0.89062-1.6875-0.89062-1.0117 0-1.7109 0.43359-2.0938 1.2969-0.19922 0.46094-0.29688 1.043-0.29688 1.75v6.2031h-2.9844v-11.453h2.8906v1.6719c0.38281-0.58203 0.75-1.0039 1.0938-1.2656 0.625-0.45703 1.4102-0.6875 2.3594-0.6875z"/>
</symbol>
<symbol id="ax" overflow="visible"></symbol>
<symbol id="aw" overflow="visible">
<path d="m8.7031-15.609h2.9375v2.75h-2.9375zm0 4.1875h3v11.422h-3zm-3-4.25c0.1875 0 0.375 0.011719 0.5625 0.03125 0.1875 0.011719 0.38281 0.023437 0.59375 0.03125v2.4531c-0.14844-0.007812-0.28906-0.015625-0.42188-0.015625-0.125-0.007813-0.28906-0.015625-0.48438-0.015625-0.46875 0-0.75781 0.13281-0.85938 0.39062-0.10547 0.26172-0.15234 0.66797-0.14062 1.2188v0.21875h1.9688v2.1094h-1.9688v9.25h-2.9844v-9.25h-1.6719v-2.1094h1.6406v-0.73438c0-1.2266 0.26953-2.1406 0.8125-2.7344 0.47656-0.5625 1.4609-0.84375 2.9531-0.84375z"/>
</symbol>
<symbol id="av" overflow="visible">
<path d="m6.3281-2.4688c0.69531 0 1.2852-0.25781 1.7656-0.78125 0.48828-0.53125 0.73438-1.375 0.73438-2.5312 0-1.0938-0.23047-1.9219-0.6875-2.4844-0.46094-0.57031-1.0742-0.85938-1.8438-0.85938-1.0547 0-1.7812 0.49609-2.1875 1.4844-0.21094 0.53125-0.3125 1.1836-0.3125 1.9531 0 0.66797 0.11328 1.2617 0.34375 1.7812 0.40625 0.96094 1.1328 1.4375 2.1875 1.4375zm-0.75-9.2656c0.57031 0 1.0703 0.085937 1.5 0.25 0.73828 0.30469 1.332 0.85938 1.7812 1.6719v-1.6562h2.9062v10.875c0 1.4766-0.25 2.5938-0.75 3.3438-0.85547 1.2891-2.4961 1.9375-4.9219 1.9375-1.4688 0-2.668-0.28906-3.5938-0.85938-0.92969-0.57422-1.4375-1.4336-1.5312-2.5781h3.2656c0.082031 0.35156 0.21875 0.60938 0.40625 0.76562 0.32031 0.26953 0.86719 0.40625 1.6406 0.40625 1.0703 0 1.7891-0.35938 2.1562-1.0781 0.23828-0.46875 0.35938-1.25 0.35938-2.3438v-0.73438c-0.28125 0.49219-0.58984 0.85938-0.92188 1.1094-0.59375 0.44922-1.3711 0.67188-2.3281 0.67188-1.4688 0-2.6484-0.51562-3.5312-1.5469-0.88672-1.0312-1.3281-2.4297-1.3281-4.2031 0-1.707 0.42578-3.1406 1.2812-4.2969 0.85156-1.1562 2.0547-1.7344 3.6094-1.7344z"/>
</symbol>
<symbol id="ap" overflow="visible">
<path d="m7.4844-4.9531-1.8438-5.3281-1.9375 5.3281zm-2.6875-7.125h1.8438l4.375 12.078h-1.7812l-1.2344-3.625h-4.7656l-1.3125 3.625h-1.6719z"/>
</symbol>
<symbol id="ak" overflow="visible">
<path d="m1.125-12.078h1.4844v12.078h-1.4844z"/>
</symbol>
<symbol id="i" overflow="visible">
<path d="m1.375-11.266h1.5v2.4531h1.4062v1.2188h-1.4062v5.75c0 0.30469 0.10156 0.50781 0.3125 0.60938 0.11328 0.0625 0.30469 0.09375 0.57812 0.09375h0.21875c0.082031-0.007813 0.17969-0.019531 0.29688-0.03125v1.1719c-0.16797 0.050781-0.34375 0.085938-0.53125 0.10938-0.1875 0.019531-0.38672 0.03125-0.59375 0.03125-0.6875 0-1.1562-0.17578-1.4062-0.53125-0.25-0.35156-0.375-0.8125-0.375-1.375v-5.8281h-1.1875v-1.2188h1.1875z"/>
</symbol>
<symbol id="d" overflow="visible">
<path d="m4.75-9c0.625 0 1.2266 0.14844 1.8125 0.4375 0.58203 0.29297 1.0312 0.67188 1.3438 1.1406 0.28906 0.4375 0.48828 0.95312 0.59375 1.5469 0.082031 0.40625 0.125 1.0547 0.125 1.9375h-6.4531c0.03125 0.89844 0.24219 1.6172 0.64062 2.1562 0.39453 0.54297 1.0039 0.8125 1.8281 0.8125 0.76953 0 1.3828-0.25391 1.8438-0.76562 0.26953-0.28906 0.45703-0.63281 0.5625-1.0312h1.4531c-0.03125 0.32422-0.15625 0.6875-0.375 1.0938-0.21875 0.39844-0.46484 0.71875-0.73438 0.96875-0.44922 0.4375-1 0.73438-1.6562 0.89062-0.36719 0.082031-0.77344 0.125-1.2188 0.125-1.0938 0-2.0234-0.39453-2.7812-1.1875-0.76172-0.80078-1.1406-1.9219-1.1406-3.3594 0-1.4141 0.37891-2.5625 1.1406-3.4375 0.76953-0.88281 1.7734-1.3281 3.0156-1.3281zm2.3594 3.8906c-0.0625-0.63281-0.20312-1.1445-0.42188-1.5312-0.40625-0.71875-1.0859-1.0781-2.0312-1.0781-0.67969 0-1.2461 0.24609-1.7031 0.73438-0.46094 0.49219-0.70312 1.1172-0.73438 1.875z"/>
</symbol>
<symbol id="aj" overflow="visible">
<path d="m1.125-8.8125h1.4062v1.5312c0.11328-0.30078 0.39453-0.66016 0.84375-1.0781 0.44531-0.42578 0.96875-0.64062 1.5625-0.64062 0.019531 0 0.0625 0.007812 0.125 0.015625 0.070312 0 0.1875 0.007813 0.34375 0.015625v1.5625c-0.085938-0.007812-0.16797-0.015625-0.25-0.015625-0.074219-0.007813-0.15234-0.015625-0.23438-0.015625-0.75 0-1.3242 0.24219-1.7188 0.71875-0.39844 0.48047-0.59375 1.0312-0.59375 1.6562v5.0625h-1.4844z"/>
</symbol>
<symbol id="w" overflow="visible">
<path d="m1.0781-8.8125h1.4062v1.25c0.41406-0.50781 0.85938-0.875 1.3281-1.0938 0.46875-0.22656 0.98438-0.34375 1.5469-0.34375 1.25 0 2.0938 0.43359 2.5312 1.2969 0.25 0.48047 0.375 1.1641 0.375 2.0469v5.6562h-1.5156v-5.5469c0-0.53906-0.078125-0.97266-0.23438-1.2969-0.26172-0.55078-0.73438-0.82812-1.4219-0.82812-0.35547 0-0.64844 0.039063-0.875 0.10938-0.40625 0.11719-0.76172 0.35547-1.0625 0.71875-0.25 0.29297-0.41406 0.59375-0.48438 0.90625-0.074219 0.30469-0.10938 0.74609-0.10938 1.3281v4.6094h-1.4844z"/>
</symbol>
<symbol id="ai" overflow="visible">
<path d="m2.2188-2.3438c0 0.42969 0.15625 0.76562 0.46875 1.0156 0.3125 0.24219 0.67969 0.35938 1.1094 0.35938 0.51953 0 1.0234-0.11719 1.5156-0.35938 0.82031-0.39453 1.2344-1.0508 1.2344-1.9688v-1.1875c-0.1875 0.11719-0.42188 0.21484-0.70312 0.29688-0.28125 0.074219-0.5625 0.125-0.84375 0.15625l-0.89062 0.10938c-0.54297 0.074219-0.94531 0.1875-1.2031 0.34375-0.46094 0.26172-0.6875 0.67188-0.6875 1.2344zm3.5781-3c0.34375-0.039062 0.57031-0.17969 0.6875-0.42188 0.0625-0.13281 0.09375-0.32031 0.09375-0.5625 0-0.50781-0.18359-0.875-0.54688-1.0938-0.35547-0.22656-0.86719-0.34375-1.5312-0.34375-0.77344 0-1.3203 0.21094-1.6406 0.625-0.17969 0.23047-0.29688 0.57031-0.35938 1.0156h-1.375c0.03125-1.082 0.38281-1.832 1.0625-2.25 0.67578-0.42578 1.457-0.64062 2.3438-0.64062 1.0391 0 1.8828 0.19531 2.5312 0.57812 0.63281 0.39844 0.95312 1.0117 0.95312 1.8438v5.0781c0 0.15625 0.03125 0.28125 0.09375 0.375s0.19531 0.14062 0.40625 0.14062c0.0625 0 0.13281-0.003906 0.21875-0.015625 0.082031-0.007813 0.17188-0.019531 0.26562-0.03125v1.0938c-0.23047 0.0625-0.40625 0.097656-0.53125 0.10938-0.11719 0.019531-0.27734 0.03125-0.48438 0.03125-0.51172 0-0.88281-0.18359-1.1094-0.54688-0.125-0.1875-0.21484-0.45703-0.26562-0.8125-0.30469 0.39844-0.73438 0.74219-1.2969 1.0312s-1.1836 0.4375-1.8594 0.4375c-0.8125 0-1.4805-0.24609-2-0.73438-0.52344-0.5-0.78125-1.125-0.78125-1.875 0-0.8125 0.25391-1.4414 0.76562-1.8906 0.50781-0.45703 1.1758-0.73828 2-0.84375z"/>
</symbol>
<symbol id="v" overflow="visible"></symbol>
<symbol id="u" overflow="visible">
<path d="m0.96875-12.125h1.4375v4.3906c0.32031-0.42578 0.70703-0.75 1.1562-0.96875 0.44531-0.21875 0.9375-0.32812 1.4688-0.32812 1.0938 0 1.9766 0.375 2.6562 1.125 0.6875 0.75 1.0312 1.8594 1.0312 3.3281 0 1.3984-0.33984 2.5586-1.0156 3.4844-0.66797 0.91797-1.6016 1.375-2.7969 1.375-0.66797 0-1.2305-0.16406-1.6875-0.48438-0.28125-0.19531-0.57812-0.50391-0.89062-0.92188v1.125h-1.3594zm3.8438 11.094c0.80078 0 1.3984-0.31641 1.7969-0.95312 0.39453-0.63281 0.59375-1.4727 0.59375-2.5156 0-0.92578-0.19922-1.6914-0.59375-2.2969-0.39844-0.61328-0.98047-0.92188-1.75-0.92188-0.67969 0-1.2734 0.25-1.7812 0.75-0.5 0.5-0.75 1.3242-0.75 2.4688 0 0.83594 0.10156 1.5078 0.3125 2.0156 0.38281 0.96875 1.1094 1.4531 2.1719 1.4531z"/>
</symbol>
<symbol id="ao" overflow="visible">
<path d="m1.7656-8.8125 1.6875 6.9531 1.7188-6.9531h1.6719l1.7188 6.9062 1.7969-6.9062h1.4844l-2.5625 8.8125h-1.5312l-1.7969-6.8125-1.7344 6.8125h-1.5312l-2.5469-8.8125z"/>
</symbol>
<symbol id="an" overflow="visible">
<path d="m4.5781-0.95312c0.97656 0 1.6484-0.36719 2.0156-1.1094 0.36328-0.75 0.54688-1.5781 0.54688-2.4844 0-0.82031-0.13281-1.4922-0.39062-2.0156-0.41797-0.80078-1.1367-1.2031-2.1562-1.2031-0.90625 0-1.5703 0.34375-1.9844 1.0312-0.40625 0.6875-0.60938 1.5234-0.60938 2.5 0 0.9375 0.20312 1.7188 0.60938 2.3438 0.41406 0.625 1.0703 0.9375 1.9688 0.9375zm0.0625-8.1094c1.125 0 2.0781 0.38281 2.8594 1.1406 0.78906 0.75 1.1875 1.8594 1.1875 3.3281 0 1.4297-0.35156 2.6055-1.0469 3.5312-0.6875 0.92969-1.7578 1.3906-3.2031 1.3906-1.2109 0-2.1719-0.41016-2.8906-1.2344-0.71094-0.82031-1.0625-1.9258-1.0625-3.3125 0-1.4766 0.375-2.6562 1.125-3.5312s1.7578-1.3125 3.0312-1.3125z"/>
</symbol>
<symbol id="am" overflow="visible">
<path d="m1.0781-12.125h1.4844v4.5156c0.35156-0.44531 0.67188-0.75781 0.95312-0.9375 0.46875-0.3125 1.0625-0.46875 1.7812-0.46875 1.2695 0 2.1328 0.44531 2.5938 1.3281 0.25 0.49219 0.375 1.168 0.375 2.0312v5.6562h-1.5312v-5.5469c0-0.64453-0.085937-1.1172-0.25-1.4219-0.26172-0.48828-0.76172-0.73438-1.5-0.73438-0.61719 0-1.1719 0.21484-1.6719 0.64062-0.5 0.41797-0.75 1.2148-0.75 2.3906v4.6719h-1.4844z"/>
</symbol>
<symbol id="x" overflow="visible">
<path d="m1.9688-2.7656c0.039062 0.5 0.16016 0.88281 0.35938 1.1406 0.375 0.48047 1.0195 0.71875 1.9375 0.71875 0.55078 0 1.0352-0.11719 1.4531-0.35938 0.41406-0.23828 0.625-0.60938 0.625-1.1094 0-0.375-0.16797-0.66016-0.5-0.85938-0.21875-0.125-0.64062-0.26562-1.2656-0.42188l-1.1719-0.29688c-0.75-0.1875-1.3086-0.39453-1.6719-0.625-0.63672-0.40625-0.95312-0.96094-0.95312-1.6719 0-0.83203 0.30078-1.5039 0.90625-2.0156 0.60156-0.50781 1.4102-0.76562 2.4219-0.76562 1.3203 0 2.2734 0.38672 2.8594 1.1562 0.375 0.5 0.55469 1.0312 0.54688 1.5938h-1.4062c-0.023437-0.33203-0.13672-0.63281-0.34375-0.90625-0.34375-0.38281-0.93359-0.57812-1.7656-0.57812-0.5625 0-0.99219 0.10938-1.2812 0.32812-0.28125 0.21094-0.42188 0.48438-0.42188 0.82812 0 0.38672 0.1875 0.69531 0.5625 0.92188 0.21875 0.13672 0.53906 0.25781 0.96875 0.35938l0.98438 0.25c1.0625 0.25 1.7695 0.5 2.125 0.75 0.58203 0.375 0.875 0.96875 0.875 1.7812 0 0.78125-0.30469 1.4609-0.90625 2.0312-0.59375 0.57031-1.4961 0.85938-2.7031 0.85938-1.3125 0-2.2461-0.29688-2.7969-0.89062-0.54297-0.60156-0.82812-1.3438-0.85938-2.2188z"/>
</symbol>
<symbol id="al" overflow="visible">
<path d="m4.7969-1c0.6875 0 1.2578-0.28516 1.7188-0.85938 0.45703-0.58203 0.6875-1.4453 0.6875-2.5938 0-0.70703-0.10156-1.3125-0.29688-1.8125-0.38672-0.96875-1.0898-1.4531-2.1094-1.4531-1.0234 0-1.7266 0.51172-2.1094 1.5312-0.19922 0.55469-0.29688 1.25-0.29688 2.0938 0 0.67969 0.097656 1.2578 0.29688 1.7344 0.38281 0.90625 1.0859 1.3594 2.1094 1.3594zm-3.8281-7.7656h1.4375v1.1719c0.28906-0.40625 0.61328-0.71875 0.96875-0.9375 0.5-0.32031 1.0859-0.48438 1.7656-0.48438 0.98828 0 1.832 0.38281 2.5312 1.1406 0.69531 0.76172 1.0469 1.8555 1.0469 3.2812 0 1.918-0.5 3.2891-1.5 4.1094-0.63672 0.51953-1.375 0.78125-2.2188 0.78125-0.66797 0-1.2266-0.14844-1.6719-0.4375-0.26172-0.16406-0.55469-0.44531-0.875-0.84375v4.5h-1.4844z"/>
</symbol>
<symbol id="s" overflow="visible">
<path d="m2.4062-5.5469c0.125-0.53906 0.1875-0.98438 0.1875-1.3281 0-0.22656-0.042969-0.39453-0.125-0.5-0.074219-0.11328-0.1875-0.17188-0.34375-0.17188-0.1875 0-0.38672 0.078125-0.59375 0.23438-0.19922 0.14844-0.46875 0.41797-0.8125 0.8125l-0.5-0.5c0.51953-0.55078 0.96094-0.94531 1.3281-1.1875 0.36328-0.23828 0.76953-0.35938 1.2188-0.35938 0.36328 0 0.64844 0.12109 0.85938 0.35938 0.21875 0.24219 0.32812 0.55859 0.32812 0.95312 0 0.33594-0.070313 0.67969-0.20312 1.0312l0.10938 0.046875c1.082-1.5938 2.1602-2.3906 3.2344-2.3906 0.63281 0 1.1289 0.24609 1.4844 0.73438 0.35156 0.49219 0.53125 1.1797 0.53125 2.0625 0 0.96094-0.19531 1.9062-0.57812 2.8438-0.38672 0.9375-0.92969 1.6836-1.625 2.2344-0.6875 0.54297-1.4609 0.8125-2.3125 0.8125-0.78125 0-1.4336-0.17188-1.9531-0.51562l-0.40625 1.9375c-0.085937 0.41406-0.125 0.75391-0.125 1.0156 0 0.25781 0.0625 0.44141 0.1875 0.54688 0.13281 0.11328 0.39453 0.1875 0.78125 0.21875l-0.078125 0.4375h-2.7031zm0.89062 2.4844c-0.0625 0.3125-0.10156 0.55469-0.10938 0.71875-0.011719 0.16797-0.015625 0.32812-0.015625 0.48438 0 0.46094 0.09375 0.79297 0.28125 1 0.19531 0.21094 0.53516 0.3125 1.0156 0.3125 0.30078 0 0.57812-0.054687 0.82812-0.17188 0.25-0.125 0.48828-0.29688 0.71875-0.51562 0.22656-0.22656 0.42969-0.5 0.60938-0.8125 0.1875-0.3125 0.34766-0.67578 0.48438-1.0938 0.14453-0.42578 0.25391-0.85938 0.32812-1.2969 0.070312-0.44531 0.10938-0.86328 0.10938-1.25 0-0.61328-0.089844-1.0703-0.26562-1.375-0.16797-0.30078-0.4375-0.45312-0.8125-0.45312-0.30469 0-0.60156 0.10547-0.89062 0.3125-0.28125 0.19922-0.60156 0.52344-0.95312 0.96875-0.34375 0.4375-0.61719 0.875-0.8125 1.3125-0.1875 0.4375-0.33984 0.9375-0.45312 1.5z"/>
</symbol>
<symbol id="r" overflow="visible">
<path d="m3.1094-4.4531c0 2.0547 0.32812 3.7461 0.98438 5.0781s1.6602 2.2227 3.0156 2.6719l-0.20312 0.67188c-1.7188-0.44922-3.0391-1.418-3.9531-2.9062-0.91797-1.4883-1.375-3.2969-1.375-5.4219 0-2.1133 0.45703-3.9219 1.375-5.4219 0.91406-1.5 2.2344-2.4727 3.9531-2.9219l0.23438 0.67188c-1.375 0.46094-2.3906 1.3438-3.0469 2.6562-0.65625 1.3047-0.98438 2.9453-0.98438 4.9219z"/>
</symbol>
<symbol id="q" overflow="visible">
<path d="m6.0156-12-0.09375 0.4375c-0.25 0.042969-0.45312 0.13281-0.60938 0.26562-0.14844 0.125-0.21875 0.3125-0.21875 0.5625 0 0.375 0.097656 0.85156 0.29688 1.4219l0.73438 2.125 1.625-2.0625c0.25-0.3125 0.44141-0.56641 0.57812-0.76562 0.14453-0.20703 0.25-0.39062 0.3125-0.54688s0.09375-0.28906 0.09375-0.40625c0-0.15625-0.046875-0.28906-0.14062-0.40625-0.09375-0.11328-0.25781-0.17578-0.48438-0.1875l0.09375-0.4375h3.2812l-0.10938 0.4375c-0.16797 0.054688-0.32812 0.13672-0.48438 0.25-0.15625 0.11719-0.34375 0.29297-0.5625 0.53125-0.21094 0.23047-0.60547 0.69531-1.1875 1.3906l-2.625 3.125 1.2969 3.5625c0.1875 0.54297 0.34375 0.96094 0.46875 1.25 0.125 0.28125 0.23438 0.49219 0.32812 0.625 0.070313 0.09375 0.14844 0.17188 0.23438 0.23438 0.082031 0.054688 0.21875 0.10547 0.40625 0.15625l-0.078125 0.4375h-3.5625l0.09375-0.4375c0.26953-0.039062 0.47656-0.12891 0.625-0.26562 0.14453-0.14453 0.21875-0.33203 0.21875-0.5625 0-0.34375-0.074219-0.72656-0.21875-1.1562l-0.90625-2.6719-2.0156 2.5c-0.29297 0.375-0.50781 0.68359-0.64062 0.92188-0.13672 0.24219-0.20312 0.44531-0.20312 0.60938 0 0.23047 0.050781 0.38672 0.15625 0.46875 0.11328 0.085938 0.26953 0.13672 0.46875 0.15625l-0.10938 0.4375h-3.2656l0.09375-0.4375c0.17578-0.050781 0.33594-0.13281 0.48438-0.25 0.15625-0.11328 0.35156-0.30078 0.59375-0.5625 0.23828-0.26953 0.64844-0.75391 1.2344-1.4531l2.7969-3.3125-1.3125-3.625c-0.21094-0.59375-0.375-1.0039-0.5-1.2344-0.125-0.23828-0.25-0.40625-0.375-0.5-0.11719-0.09375-0.26562-0.15625-0.45312-0.1875l0.09375-0.4375z"/>
</symbol>
<symbol id="p" overflow="visible">
<path d="m3.5312 3.7812h-1.3594v-16.359h1.3594z"/>
</symbol>
<symbol id="o" overflow="visible">
<path d="m3.9688-2.0469v2.0469h-1.7812v-2.0469zm4.2969 0v2.0469h-1.7656v-2.0469zm4.3125 0v2.0469h-1.7812v-2.0469z"/>
</symbol>
<symbol id="n" overflow="visible">
<path d="m4.375-4.4531c0-1.9766-0.32812-3.6172-0.98438-4.9219-0.65625-1.3125-1.6797-2.1953-3.0625-2.6562l0.25-0.67188c1.707 0.44922 3.0195 1.4219 3.9375 2.9219 0.91406 1.5 1.375 3.3086 1.375 5.4219 0 2.125-0.46094 3.9336-1.375 5.4219-0.91797 1.4883-2.2305 2.457-3.9375 2.9062l-0.21875-0.67188c1.3516-0.44922 2.3594-1.3398 3.0156-2.6719 0.66406-1.332 1-3.0234 1-5.0781z"/>
</symbol>
<symbol id="ah" overflow="visible">
<path d="m4.6406-1.6719c0 0.125 0.003906 0.24219 0.015625 0.34375 0.007812 0.09375 0.019531 0.17188 0.03125 0.23438 0.019531 0.0625 0.046875 0.12109 0.078125 0.17188 0.03125 0.042969 0.066406 0.078125 0.10938 0.10938 0.050781 0.054688 0.11719 0.09375 0.20312 0.125 0.09375 0.03125 0.20312 0.058594 0.32812 0.078125 0.13281 0.011719 0.28906 0.023437 0.46875 0.03125 0.1875 0.011719 0.41016 0.023437 0.67188 0.03125v0.54688h-5.0312v-0.54688c0.25-0.007813 0.45703-0.019531 0.625-0.03125 0.17578-0.007813 0.32812-0.023437 0.45312-0.046875 0.125-0.019531 0.22266-0.039062 0.29688-0.0625 0.070313-0.019531 0.13281-0.050781 0.1875-0.09375 0.0625-0.03125 0.11328-0.066406 0.15625-0.10938 0.039063-0.050781 0.070313-0.10938 0.09375-0.17188 0.03125-0.070312 0.050781-0.15625 0.0625-0.25 0.019531-0.09375 0.03125-0.21094 0.03125-0.35938v-4.5625c0-0.15625-0.039063-0.26562-0.10938-0.32812-0.0625-0.070312-0.15234-0.10938-0.26562-0.10938-0.13672 0-0.33594 0.070313-0.59375 0.20312-0.25 0.13672-0.58594 0.33594-1 0.59375-0.054687-0.09375-0.10547-0.1875-0.15625-0.28125-0.042969-0.10156-0.089844-0.20703-0.14062-0.3125 0.53125-0.28125 1.0508-0.5625 1.5625-0.84375 0.50781-0.28906 1.0312-0.57812 1.5625-0.85938h0.39062c-0.011719 0.23047-0.023437 0.4375-0.03125 0.625v0.53125 0.51562z"/>
</symbol>
<symbol id="ag" overflow="visible">
<path d="m4.6094-1.0312c0.19531 0 0.35156-0.003906 0.46875-0.015625 0.125-0.019531 0.22266-0.054687 0.29688-0.10938 0.082031-0.050781 0.14844-0.12891 0.20312-0.23438 0.050781-0.10156 0.11328-0.24219 0.1875-0.42188h0.59375c-0.023437 0.30469-0.042969 0.60547-0.0625 0.90625-0.023437 0.30469-0.042969 0.60547-0.0625 0.90625h-5.375v-0.32812c0.10156-0.22656 0.22266-0.45312 0.35938-0.67188 0.13281-0.22656 0.28516-0.45703 0.45312-0.6875 0.17578-0.22656 0.36719-0.46094 0.57812-0.70312 0.21875-0.23828 0.45703-0.49219 0.71875-0.76562 0.39453-0.39453 0.71875-0.73438 0.96875-1.0156s0.44531-0.53125 0.59375-0.75c0.14453-0.21875 0.24219-0.42188 0.29688-0.60938 0.050781-0.1875 0.078125-0.38281 0.078125-0.59375 0-0.21875-0.03125-0.41406-0.09375-0.59375-0.0625-0.1875-0.15234-0.34375-0.26562-0.46875-0.11719-0.125-0.26172-0.22266-0.4375-0.29688-0.16797-0.070313-0.36719-0.10938-0.59375-0.10938-0.39844 0-0.73047 0.10938-1 0.32812-0.26172 0.21094-0.46875 0.51562-0.625 0.92188h-0.82812v-1.2344c0.53906-0.22656 1.0391-0.39062 1.5-0.48438 0.45703-0.10156 0.86719-0.15625 1.2344-0.15625 0.4375 0 0.8125 0.054688 1.125 0.15625 0.3125 0.09375 0.5625 0.22656 0.75 0.39062 0.19531 0.16797 0.33594 0.37109 0.42188 0.60938 0.09375 0.24219 0.14062 0.49609 0.14062 0.76562 0 0.16797-0.015625 0.32422-0.046875 0.46875-0.023438 0.13672-0.0625 0.27734-0.125 0.42188-0.054688 0.13672-0.125 0.27734-0.21875 0.42188-0.09375 0.13672-0.21094 0.28125-0.34375 0.4375-0.10547 0.13672-0.24609 0.29297-0.42188 0.46875-0.16797 0.17969-0.35156 0.37109-0.54688 0.57812-0.19922 0.19922-0.41406 0.40625-0.64062 0.625-0.21875 0.21875-0.43359 0.4375-0.64062 0.65625-0.19922 0.21875-0.38672 0.43359-0.5625 0.64062-0.17969 0.19922-0.32031 0.38281-0.42188 0.54688z"/>
</symbol>
<symbol id="af" overflow="visible">
<path d="m1.0938-6.3281v-1.25c0.5-0.20703 0.96875-0.36328 1.4062-0.46875 0.44531-0.11328 0.875-0.17188 1.2812-0.17188 0.33203 0 0.64453 0.039062 0.9375 0.10938 0.30078 0.074219 0.55469 0.18359 0.76562 0.32812 0.21875 0.14844 0.38281 0.32812 0.5 0.54688 0.125 0.21875 0.1875 0.46875 0.1875 0.75 0 0.27344-0.039063 0.51172-0.10938 0.71875-0.074219 0.21094-0.19531 0.40234-0.35938 0.57812-0.15625 0.16797-0.35156 0.32031-0.57812 0.45312-0.23047 0.13672-0.49609 0.26562-0.79688 0.39062v0.078125c0.28125 0.054687 0.53906 0.13672 0.78125 0.25 0.25 0.10547 0.46875 0.24609 0.65625 0.42188 0.1875 0.16797 0.33203 0.36719 0.4375 0.59375 0.10156 0.21875 0.15625 0.46484 0.15625 0.73438 0 0.34375-0.0625 0.66406-0.1875 0.95312-0.125 0.29297-0.32031 0.54297-0.57812 0.75-0.25 0.21094-0.5625 0.375-0.9375 0.5-0.375 0.11328-0.80859 0.17188-1.2969 0.17188-0.39844 0-0.79688-0.039062-1.2031-0.10938-0.40625-0.082031-0.79297-0.1875-1.1562-0.3125v-1.375h0.8125c0.070312 0.21094 0.15625 0.39062 0.25 0.54688 0.09375 0.14844 0.20312 0.26562 0.32812 0.35938s0.26562 0.16406 0.42188 0.20312c0.16406 0.042969 0.35156 0.0625 0.5625 0.0625 0.53906 0 0.95312-0.125 1.2344-0.375 0.28125-0.25781 0.42188-0.65625 0.42188-1.1875 0-0.5625-0.1875-0.98828-0.5625-1.2812-0.36719-0.28906-0.91406-0.4375-1.6406-0.4375h-0.5625v-0.60938c0.44531-0.019531 0.83203-0.082031 1.1562-0.1875 0.32031-0.10156 0.59375-0.23828 0.8125-0.40625 0.21875-0.16406 0.37891-0.35938 0.48438-0.57812 0.10156-0.21875 0.15625-0.45312 0.15625-0.70312 0-0.40625-0.12109-0.72266-0.35938-0.95312-0.24219-0.23828-0.58984-0.35938-1.0469-0.35938-0.38672 0-0.71094 0.10938-0.96875 0.32812-0.26172 0.21094-0.46484 0.52344-0.60938 0.9375z"/>
</symbol>
<symbol id="m" overflow="visible">
<path d="m2.5312 0h-2.1562l4.7031-6.75-4.4062-6.4375h2.2344l3.3438 5.0469 3.3281-5.0469h2.125l-4.4062 6.4375 4.625 6.75h-2.2188l-3.5312-5.4219z"/>
</symbol>
<symbol id="ae" overflow="visible">
<path d="m1.4688-7.5781v-1.0312c0.96875-0.09375 1.6406-0.25 2.0156-0.46875 0.38281-0.22656 0.67188-0.75391 0.85938-1.5781h1.0625v10.656h-1.4219v-7.5781z"/>
</symbol>
<symbol id="ad" overflow="visible">
<path d="m0.48438 0c0.039063-0.92578 0.22656-1.7266 0.5625-2.4062 0.33203-0.6875 0.97656-1.3047 1.9375-1.8594l1.4375-0.82812c0.63281-0.375 1.082-0.69531 1.3438-0.96875 0.40625-0.40625 0.60938-0.87891 0.60938-1.4219 0-0.61328-0.1875-1.1016-0.5625-1.4688-0.36719-0.375-0.85938-0.5625-1.4844-0.5625-0.91797 0-1.5547 0.35156-1.9062 1.0469-0.1875 0.375-0.29297 0.89844-0.3125 1.5625h-1.375c0.019531-0.9375 0.19141-1.6953 0.51562-2.2812 0.58203-1.0391 1.6094-1.5625 3.0781-1.5625 1.2266 0 2.125 0.33594 2.6875 1 0.5625 0.66797 0.84375 1.4062 0.84375 2.2188 0 0.85547-0.29688 1.5859-0.89062 2.1875-0.35547 0.35547-0.98047 0.78906-1.875 1.2969l-1.0312 0.5625c-0.49219 0.27344-0.87109 0.52734-1.1406 0.76562-0.5 0.4375-0.8125 0.92188-0.9375 1.4531h5.8281v1.2656z"/>
</symbol>
<symbol id="ac" overflow="visible">
<path d="m3.9688 0.29688c-1.2617 0-2.1797-0.34766-2.75-1.0469-0.57422-0.69531-0.85938-1.5469-0.85938-2.5469h1.4062c0.0625 0.69922 0.19141 1.2031 0.39062 1.5156 0.34375 0.5625 0.97266 0.84375 1.8906 0.84375 0.70703 0 1.2734-0.1875 1.7031-0.5625 0.42578-0.38281 0.64062-0.875 0.64062-1.4688 0-0.73828-0.23047-1.2539-0.6875-1.5469-0.44922-0.28906-1.0742-0.4375-1.875-0.4375h-0.26562c-0.09375 0-0.1875 0.007813-0.28125 0.015625v-1.1875c0.13281 0.011719 0.25 0.023438 0.34375 0.03125h0.3125c0.5 0 0.91016-0.078125 1.2344-0.23438 0.57031-0.28125 0.85938-0.78125 0.85938-1.5 0-0.53125-0.19531-0.94141-0.57812-1.2344-0.375-0.28906-0.8125-0.4375-1.3125-0.4375-0.89844 0-1.5156 0.30469-1.8594 0.90625-0.1875 0.32422-0.29297 0.79297-0.3125 1.4062h-1.3281c0-0.80078 0.15625-1.4766 0.46875-2.0312 0.55078-1 1.5156-1.5 2.8906-1.5 1.0938 0 1.9375 0.24609 2.5312 0.73438 0.59375 0.48047 0.89062 1.1836 0.89062 2.1094 0 0.65625-0.17969 1.1875-0.53125 1.5938-0.21875 0.25-0.5 0.44922-0.84375 0.59375 0.5625 0.15625 1 0.46094 1.3125 0.90625 0.3125 0.4375 0.46875 0.97656 0.46875 1.6094 0 1.0234-0.33984 1.8555-1.0156 2.5-0.66797 0.64844-1.6172 0.96875-2.8438 0.96875z"/>
</symbol>
<symbol id="c" overflow="visible">
<path d="m8.1875-7.0938c-0.5 0.60547-1.2422 1.6055-2.2188 3-0.96875 1.3984-1.875 2.7891-2.7188 4.1719-0.17969 1.082-0.39844 2.1016-0.65625 3.0625h-1.1719l-0.21875-0.375c0.20703-0.8125 0.57812-1.7148 1.1094-2.7031 0.050781-0.98828 0.078125-1.9922 0.078125-3.0156 0-0.875-0.023437-1.5508-0.0625-2.0312-0.03125-0.47656-0.085937-0.83594-0.15625-1.0781-0.074219-0.23828-0.15625-0.40625-0.25-0.5s-0.21484-0.14062-0.35938-0.14062c-0.29297 0-0.625 0.21484-1 0.64062l-0.4375-0.4375c0.25-0.22656 0.44141-0.39844 0.57812-0.51562 0.13281-0.11328 0.27344-0.21094 0.42188-0.29688 0.15625-0.09375 0.3125-0.16016 0.46875-0.20312 0.15625-0.050781 0.33203-0.078125 0.53125-0.078125 0.50781 0 0.87891 0.19922 1.1094 0.59375 0.23828 0.38672 0.35938 1.0273 0.35938 1.9219 0 1.0547-0.046875 2.1953-0.14062 3.4219h0.0625c1.2695-2.125 2.3164-4.0625 3.1406-5.8125h1.6406z"/>
</symbol>
<symbol id="l" overflow="visible">
<path d="m3.2031 0.125c-0.77344 0-1.3516-0.23438-1.7344-0.70312-0.375-0.47656-0.5625-1.1914-0.5625-2.1406 0-0.51953 0.054688-1.1562 0.17188-1.9062 0.11328-0.75781 0.30078-1.5312 0.5625-2.3125 0.25781-0.78906 0.59766-1.4922 1.0156-2.1094 0.41406-0.61328 0.89062-1.082 1.4219-1.4062 0.53906-0.33203 1.1289-0.5 1.7656-0.5 1.5078 0 2.2656 0.96094 2.2656 2.875 0 0.54297-0.0625 1.1875-0.1875 1.9375s-0.32422 1.5156-0.59375 2.2969c-0.26172 0.78125-0.59375 1.4766-1 2.0781-0.40625 0.60547-0.875 1.0742-1.4062 1.4062-0.53125 0.32422-1.1055 0.48438-1.7188 0.48438zm-0.46875-5.9844h3.7344c0.25-1.0938 0.375-2.0352 0.375-2.8281 0-0.55078-0.089844-0.96094-0.26562-1.2344-0.17969-0.26953-0.45312-0.40625-0.82812-0.40625-0.61719 0-1.1836 0.38672-1.7031 1.1562-0.51172 0.77344-0.94922 1.875-1.3125 3.3125zm3.5625 0.79688h-3.75c-0.25 1.1367-0.375 2.0898-0.375 2.8594 0 0.58594 0.085937 1.0117 0.26562 1.2812 0.17578 0.27344 0.46094 0.40625 0.85938 0.40625 0.58203 0 1.1328-0.39062 1.6562-1.1719 0.53125-0.78125 0.97656-1.9062 1.3438-3.375z"/>
</symbol>
<symbol id="g" overflow="visible">
<path d="m4.2812-1.5469c0 0.125 0.003906 0.23047 0.015625 0.3125 0.007813 0.085937 0.019531 0.15625 0.03125 0.21875 0.019531 0.0625 0.046875 0.11719 0.078125 0.15625 0.03125 0.042969 0.0625 0.078125 0.09375 0.10938 0.050781 0.054688 0.11328 0.09375 0.1875 0.125 0.082031 0.023438 0.17969 0.042969 0.29688 0.0625 0.125 0.011719 0.26953 0.023438 0.4375 0.03125 0.17578 0.011719 0.38281 0.015625 0.625 0.015625v0.51562h-4.6562v-0.51562c0.22656 0 0.42188-0.003906 0.57812-0.015625 0.16406-0.007812 0.30469-0.023438 0.42188-0.046875 0.11328-0.019531 0.20312-0.039063 0.26562-0.0625 0.070312-0.019531 0.13281-0.046875 0.1875-0.078125 0.050781-0.03125 0.097656-0.066406 0.14062-0.10938 0.039063-0.039063 0.070313-0.09375 0.09375-0.15625 0.019531-0.0625 0.035156-0.13281 0.046875-0.21875 0.019531-0.09375 0.03125-0.20703 0.03125-0.34375v-4.2031c0-0.15625-0.03125-0.26562-0.09375-0.32812-0.054688-0.0625-0.13672-0.09375-0.25-0.09375-0.125 0-0.30859 0.0625-0.54688 0.1875-0.23047 0.125-0.53906 0.3125-0.92188 0.5625-0.054688-0.09375-0.10156-0.17969-0.14062-0.26562-0.042969-0.09375-0.085937-0.1875-0.125-0.28125 0.47656-0.25781 0.95312-0.51953 1.4219-0.78125 0.47656-0.26953 0.96094-0.53516 1.4531-0.79688h0.35938c-0.011719 0.21875-0.015625 0.41406-0.015625 0.57812 0 0.16797-0.007813 0.33594-0.015625 0.5v0.46875z"/>
</symbol>
<symbol id="f" overflow="visible">
<path d="m1.0156-5.8438v-1.1562c0.45703-0.19531 0.89062-0.34375 1.2969-0.4375 0.40625-0.10156 0.79688-0.15625 1.1719-0.15625 0.3125 0 0.60156 0.039062 0.875 0.10938 0.26953 0.0625 0.50391 0.16406 0.70312 0.29688 0.20703 0.13672 0.36328 0.30859 0.46875 0.51562 0.11328 0.19922 0.17188 0.42969 0.17188 0.6875 0 0.25-0.039063 0.47656-0.10938 0.67188-0.074219 0.1875-0.18359 0.35938-0.32812 0.51562-0.14844 0.15625-0.32812 0.29688-0.54688 0.42188-0.21094 0.125-0.44922 0.24609-0.71875 0.35938v0.078125c0.25781 0.042969 0.5 0.11719 0.71875 0.21875 0.22656 0.10547 0.42578 0.24219 0.59375 0.40625 0.17578 0.15625 0.3125 0.33984 0.40625 0.54688 0.10156 0.19922 0.15625 0.42188 0.15625 0.67188 0 0.3125-0.0625 0.60547-0.1875 0.875-0.11719 0.27344-0.29297 0.50781-0.53125 0.70312-0.23047 0.1875-0.51562 0.33984-0.85938 0.45312-0.34375 0.10156-0.74609 0.15625-1.2031 0.15625-0.36719 0-0.73438-0.039062-1.1094-0.10938s-0.73047-0.16406-1.0625-0.28125v-1.2656h0.75c0.0625 0.19922 0.13281 0.37109 0.21875 0.51562 0.09375 0.13672 0.19531 0.24609 0.3125 0.32812 0.11328 0.085938 0.24219 0.14844 0.39062 0.1875 0.15625 0.042969 0.32812 0.0625 0.51562 0.0625 0.50781 0 0.89062-0.11719 1.1406-0.35938 0.25781-0.23828 0.39062-0.60156 0.39062-1.0938 0-0.51953-0.17188-0.91016-0.51562-1.1719-0.33594-0.26953-0.83984-0.40625-1.5156-0.40625h-0.51562v-0.5625c0.41406-0.019531 0.76953-0.078125 1.0625-0.17188 0.30078-0.10156 0.55078-0.22656 0.75-0.375 0.19531-0.15625 0.34375-0.33203 0.4375-0.53125 0.10156-0.20703 0.15625-0.42578 0.15625-0.65625 0-0.375-0.11719-0.67188-0.34375-0.89062-0.21875-0.21875-0.53906-0.32812-0.95312-0.32812-0.35547 0-0.65234 0.10156-0.89062 0.29688-0.24219 0.19922-0.42969 0.49219-0.5625 0.875z"/>
</symbol>
<symbol id="e" overflow="visible">
<path d="m4.25-0.95312c0.1875 0 0.33203-0.003906 0.4375-0.015625 0.11328-0.019531 0.20703-0.050781 0.28125-0.09375 0.070312-0.050781 0.13281-0.125 0.1875-0.21875 0.050781-0.09375 0.10938-0.22266 0.17188-0.39062h0.54688c-0.023438 0.27344-0.042969 0.54688-0.0625 0.82812-0.011719 0.28125-0.027344 0.5625-0.046875 0.84375h-4.9688v-0.3125c0.09375-0.20703 0.20312-0.41016 0.32812-0.60938 0.125-0.20703 0.26562-0.41406 0.42188-0.625 0.15625-0.21875 0.33203-0.4375 0.53125-0.65625 0.19531-0.22656 0.42188-0.46094 0.67188-0.70312 0.36328-0.36328 0.66016-0.67578 0.89062-0.9375 0.22656-0.25781 0.41016-0.48828 0.54688-0.6875 0.13281-0.20703 0.22266-0.39453 0.26562-0.5625 0.050781-0.17578 0.078125-0.36328 0.078125-0.5625 0-0.19531-0.03125-0.37891-0.09375-0.54688-0.054688-0.16406-0.13281-0.30469-0.23438-0.42188-0.10547-0.125-0.24219-0.21875-0.40625-0.28125-0.15625-0.070312-0.34375-0.10938-0.5625-0.10938-0.35547 0-0.65625 0.10156-0.90625 0.29688-0.25 0.19922-0.44531 0.48438-0.57812 0.85938h-0.76562v-1.1406c0.5-0.20703 0.95703-0.35938 1.375-0.45312 0.42578-0.09375 0.80469-0.14062 1.1406-0.14062 0.40625 0 0.75 0.046875 1.0312 0.14062 0.28906 0.09375 0.52344 0.21875 0.70312 0.375 0.1875 0.15625 0.31641 0.34375 0.39062 0.5625 0.082031 0.21875 0.125 0.45312 0.125 0.70312 0 0.15625-0.011719 0.30469-0.03125 0.4375-0.023438 0.125-0.058594 0.25-0.10938 0.375-0.054687 0.125-0.125 0.25781-0.21875 0.39062-0.085937 0.125-0.1875 0.26172-0.3125 0.40625-0.10547 0.125-0.23438 0.27344-0.39062 0.4375-0.15625 0.16797-0.32812 0.34375-0.51562 0.53125-0.17969 0.1875-0.37109 0.38672-0.57812 0.59375-0.19922 0.19922-0.39844 0.39844-0.59375 0.59375-0.1875 0.19922-0.36719 0.39062-0.53125 0.57812-0.15625 0.1875-0.28125 0.35938-0.375 0.51562z"/>
</symbol>
<symbol id="ab" overflow="visible">
<path d="m7.2969-7.9062h1.7031c0.40625 0 0.59375 0 0.59375-0.40625 0-0.21875-0.1875-0.21875-0.53125-0.21875h-1.6562l0.42188-2.25c0.078125-0.42188 0.35938-1.8125 0.48438-2.0625 0.17188-0.375 0.51562-0.67188 0.92188-0.67188 0.09375 0 0.60938 0 0.98438 0.35938-0.875 0.078125-1.0781 0.76562-1.0781 1.0625 0 0.46875 0.35938 0.70312 0.73438 0.70312 0.51562 0 1.0938-0.4375 1.0938-1.1875 0-0.90625-0.90625-1.375-1.7344-1.375-0.67188 0-1.9219 0.35938-2.5156 2.3281-0.125 0.40625-0.1875 0.60938-0.65625 3.0938h-1.375c-0.375 0-0.59375 0-0.59375 0.375 0 0.25 0.17188 0.25 0.5625 0.25h1.3125l-1.5 7.8125c-0.35938 1.9062-0.6875 3.7188-1.7188 3.7188-0.09375 0-0.57812 0-0.96875-0.35938 0.92188-0.0625 1.0938-0.76562 1.0938-1.0625 0-0.46875-0.34375-0.70312-0.73438-0.70312-0.51562 0-1.0938 0.4375-1.0938 1.1875 0 0.89062 0.875 1.375 1.7031 1.375 1.0781 0 1.875-1.1719 2.2344-1.9219 0.64062-1.25 1.0938-3.6406 1.125-3.7812z"/>
</symbol>
<symbol id="aa" overflow="visible">
<path d="m6.8438-9.4219c0-0.1875-0.15625-0.1875-0.23438-0.1875-0.20312 0-0.21875 0.078125-0.28125 0.3125l-0.78125 3.1719c-2.4688 0.10938-4.5781 1.8594-4.5781 3.7188 0 1.5625 1.4375 2.5 2.9844 2.5625-0.10938 0.42188-0.20312 0.875-0.3125 1.2969-0.17188 0.65625-0.29688 1.1562-0.29688 1.2031 0 0.17188 0.17188 0.17188 0.21875 0.17188 0.20312 0 0.21875-0.046875 0.29688-0.34375l0.57812-2.3125c2.3906-0.10938 4.5625-1.8438 4.5625-3.7344 0-1.4531-1.2656-2.4844-2.9688-2.5625zm-2.7969 9.1875c-1.0625-0.0625-2.0625-0.64062-2.0625-1.9375 0-1.3906 1.0625-3.3438 3.4375-3.5625zm1.875-5.5c1.0625 0.046875 2.0625 0.625 2.0625 1.9375 0 1.5156-1.1875 3.375-3.4531 3.5625z"/>
</symbol>
<symbol id="bq" overflow="visible">
<path d="m3.9531-6.2969c0-0.29688-0.03125-0.29688-0.35938-0.29688-0.70312 0.64062-1.8125 0.64062-2 0.64062h-0.17188v0.4375h0.17188c0.21875 0 0.875-0.03125 1.4531-0.28125v4.9531c0 0.29688 0 0.40625-1.0625 0.40625h-0.5v0.4375c0.54688-0.046875 1.4375-0.046875 2.0156-0.046875s1.4531 0 2 0.046875v-0.4375h-0.48438c-1.0625 0-1.0625-0.10938-1.0625-0.40625z"/>
</symbol>
<symbol id="bp" overflow="visible">
<path d="m3.2812-3.2812c0.90625 0 1.5156 0.57812 1.5156 1.5469 0 1.0156-0.625 1.5469-1.5 1.5469-0.10938 0-1.2969 0-1.8125-0.51562 0.40625-0.0625 0.53125-0.35938 0.53125-0.60938 0-0.35938-0.28125-0.59375-0.60938-0.59375-0.3125 0-0.60938 0.20312-0.60938 0.625 0 1.0312 1.1719 1.5 2.5156 1.5 1.6406 0 2.6562-0.98438 2.6562-1.9375 0-0.8125-0.73438-1.5-1.8594-1.7656 1.1875-0.39062 1.5-1.1406 1.5-1.6875 0-0.8125-1.0156-1.4219-2.2656-1.4219-1.2188 0-2.2031 0.51562-2.2031 1.4062 0 0.46875 0.375 0.59375 0.5625 0.59375 0.29688 0 0.57812-0.21875 0.57812-0.5625 0-0.23438-0.125-0.51562-0.48438-0.57812 0.42188-0.45312 1.3125-0.48438 1.5156-0.48438 0.73438 0 1.25 0.375 1.25 1.0469 0 0.57812-0.375 1.4688-1.4219 1.5312-0.28125 0.015625-0.3125 0.015625-0.57812 0.03125-0.10938 0.015625-0.21875 0.015625-0.21875 0.17188s0.09375 0.15625 0.28125 0.15625z"/>
</symbol>
<symbol id="bo" overflow="visible">
<path d="m7.4219-7.9062h1.7344c0.40625 0 0.60938 0 0.60938-0.40625 0-0.21875-0.20312-0.21875-0.54688-0.21875h-1.6719l0.42188-2.25c0.078125-0.42188 0.35938-1.8125 0.48438-2.0625 0.1875-0.375 0.53125-0.67188 0.95312-0.67188 0.078125 0 0.60938 0 0.98438 0.35938-0.89062 0.078125-1.0938 0.76562-1.0938 1.0625 0 0.46875 0.375 0.70312 0.75 0.70312 0.53125 0 1.1094-0.4375 1.1094-1.1875 0-0.90625-0.92188-1.375-1.75-1.375-0.6875 0-1.9688 0.35938-2.5781 2.3281-0.10938 0.40625-0.17188 0.60938-0.65625 3.0938h-1.4062c-0.375 0-0.59375 0-0.59375 0.375 0 0.25 0.17188 0.25 0.5625 0.25h1.3281l-1.5156 7.8125c-0.35938 1.9062-0.70312 3.7188-1.75 3.7188-0.09375 0-0.59375 0-0.98438-0.35938 0.9375-0.0625 1.125-0.76562 1.125-1.0625 0-0.46875-0.375-0.70312-0.75-0.70312-0.53125 0-1.1094 0.4375-1.1094 1.1875 0 0.89062 0.89062 1.375 1.7188 1.375 1.1094 0 1.9219-1.1719 2.2812-1.9219 0.64062-1.25 1.1094-3.6406 1.125-3.7812z"/>
</symbol>
<symbol id="bn" overflow="visible">
<path d="m6.9688-9.4219c0-0.1875-0.17188-0.1875-0.25-0.1875-0.20312 0-0.21875 0.078125-0.28125 0.3125l-0.79688 3.1719c-2.5156 0.10938-4.6562 1.8594-4.6562 3.7188 0 1.5625 1.4688 2.5 3.0312 2.5625-0.10938 0.42188-0.20312 0.875-0.32812 1.2969-0.15625 0.65625-0.29688 1.1562-0.29688 1.2031 0 0.17188 0.1875 0.17188 0.23438 0.17188 0.21875 0 0.21875-0.046875 0.29688-0.34375l0.59375-2.3125c2.4219-0.10938 4.6406-1.8438 4.6406-3.7344 0-1.4531-1.2969-2.4844-3.0312-2.5625zm-2.8438 9.1875c-1.0938-0.0625-2.0938-0.64062-2.0938-1.9375 0-1.3906 1.0625-3.3438 3.4844-3.5625zm1.8906-5.5c1.0938 0.046875 2.1094 0.625 2.1094 1.9375 0 1.5156-1.2188 3.375-3.5156 3.5625z"/>
</symbol>
<symbol id="bm" overflow="visible">
<path d="m5.9531-1.9062h-0.42188c-0.03125 0.1875-0.14062 0.79688-0.29688 0.89062-0.078125 0.0625-0.92188 0.0625-1.0781 0.0625h-1.9844c0.67188-0.48438 1.4219-1.0312 2.0312-1.4375 0.90625-0.60938 1.75-1.1875 1.75-2.2344 0-1.2656-1.2188-1.9688-2.6719-1.9688-1.3594 0-2.3594 0.78125-2.3594 1.75 0 0.51562 0.4375 0.59375 0.57812 0.59375 0.28125 0 0.60938-0.17188 0.60938-0.57812 0-0.35938-0.26562-0.54688-0.57812-0.57812 0.28125-0.45312 0.85938-0.75 1.5469-0.75 0.96875 0 1.7969 0.57812 1.7969 1.5469 0 0.82812-0.59375 1.4688-1.3594 2.1094l-2.4688 2.0469c-0.10938 0.09375-0.10938 0.09375-0.125 0.15625v0.29688h4.7031z"/>
</symbol>
<symbol id="bl" overflow="visible">
<path d="m11.984-10.453c-0.25-1.0391-0.85156-1.7695-1.7969-2.1875-0.52344-0.21875-1.1094-0.32812-1.7656-0.32812-1.2422 0-2.2617 0.46484-3.0625 1.3906-0.79297 0.91797-1.1875 2.3047-1.1875 4.1562 0 1.875 0.42969 3.2031 1.2969 3.9844 0.86328 0.77344 1.8477 1.1562 2.9531 1.1562 1.0703 0 1.9531-0.30469 2.6406-0.92188 0.69531-0.61328 1.125-1.4219 1.2812-2.4219h-3.5625v-2.5312h6.4219v8.1562h-2.1406l-0.3125-1.8906c-0.625 0.71875-1.1836 1.2266-1.6719 1.5156-0.85547 0.51953-1.9023 0.78125-3.1406 0.78125-2.043 0-3.7148-0.69531-5.0156-2.0938-1.3555-1.4062-2.0312-3.3281-2.0312-5.7656 0-2.457 0.6875-4.4297 2.0625-5.9219 1.3633-1.4766 3.1758-2.2188 5.4375-2.2188 1.957 0 3.5312 0.49219 4.7188 1.4688 1.1875 0.98047 1.8633 2.2031 2.0312 3.6719z"/>
</symbol>
<symbol id="bi" overflow="visible">
<path d="m7.5781-11.516c0.050781 0 0.09375 0.007813 0.125 0.015625 0.039063 0 0.12891 0.007812 0.26562 0.015625v3c-0.1875-0.019531-0.35547-0.03125-0.5-0.03125-0.14844-0.007813-0.26562-0.015625-0.35938-0.015625-1.1992 0-2 0.38672-2.4062 1.1562-0.23047 0.4375-0.34375 1.1055-0.34375 2v5.375h-3v-11.25h2.8438v1.9688c0.45703-0.75 0.85938-1.2656 1.2031-1.5469 0.55078-0.45703 1.2734-0.6875 2.1719-0.6875z"/>
</symbol>
<symbol id="bh" overflow="visible">
<path d="m7.6719-5.4688c-0.1875 0.11719-0.38281 0.21094-0.57812 0.28125-0.1875 0.074219-0.44922 0.14062-0.78125 0.20312l-0.67188 0.125c-0.625 0.11719-1.0742 0.25-1.3438 0.40625-0.46094 0.27344-0.6875 0.6875-0.6875 1.25 0 0.5 0.14062 0.86719 0.42188 1.0938 0.28125 0.21875 0.625 0.32812 1.0312 0.32812 0.63281 0 1.2227-0.1875 1.7656-0.5625 0.53906-0.375 0.82031-1.0508 0.84375-2.0312zm-1.8125-1.375c0.55078-0.0625 0.94531-0.14453 1.1875-0.25 0.41406-0.17578 0.625-0.45703 0.625-0.84375 0-0.45703-0.16406-0.77344-0.48438-0.95312-0.32422-0.17578-0.79688-0.26562-1.4219-0.26562-0.71094 0-1.2109 0.17188-1.5 0.51562-0.21094 0.26172-0.34375 0.60547-0.40625 1.0312h-2.875c0.0625-0.97656 0.33594-1.7852 0.82812-2.4219 0.78906-0.98828 2.1445-1.4844 4.0625-1.4844 1.2383 0 2.3438 0.24609 3.3125 0.73438 0.96875 0.49219 1.4531 1.4141 1.4531 2.7656v5.1562c0 0.35547 0.003906 0.78906 0.015625 1.2969 0.03125 0.38672 0.09375 0.65234 0.1875 0.79688 0.09375 0.13672 0.23828 0.24609 0.4375 0.32812v0.4375h-3.2344c-0.09375-0.22656-0.16406-0.44141-0.20312-0.64062-0.03125-0.19531-0.058594-0.42578-0.078125-0.6875-0.40625 0.44922-0.88281 0.82422-1.4219 1.125-0.63672 0.36328-1.3594 0.54688-2.1719 0.54688-1.0312 0-1.8867-0.28906-2.5625-0.85938-0.66797-0.58203-1-1.4062-1-2.4688 0-1.3828 0.53906-2.3906 1.625-3.0156 0.59375-0.33203 1.4609-0.57031 2.6094-0.71875z"/>
</symbol>
<symbol id="bg" overflow="visible">
<path d="m9.2344-5.625c0-0.86328-0.20312-1.6289-0.60938-2.2969-0.39844-0.66406-1.043-1-1.9375-1-1.0859 0-1.8281 0.50781-2.2344 1.5156-0.21094 0.53125-0.3125 1.2148-0.3125 2.0469 0 1.3047 0.35156 2.2188 1.0625 2.75 0.41406 0.3125 0.91016 0.46875 1.4844 0.46875 0.82031 0 1.4531-0.31641 1.8906-0.95312 0.4375-0.63281 0.65625-1.4766 0.65625-2.5312zm-1.6875-5.8594c1.3203 0 2.4414 0.48438 3.3594 1.4531 0.92578 0.96875 1.3906 2.3906 1.3906 4.2656 0 1.9805-0.45312 3.4922-1.3594 4.5312-0.89844 1.0312-2.0547 1.5469-3.4688 1.5469-0.90625 0-1.6562-0.21875-2.25-0.65625-0.33594-0.25-0.65625-0.61328-0.96875-1.0938v5.8594h-2.9375v-15.672h2.8438v1.6719c0.32031-0.48828 0.66406-0.875 1.0312-1.1562 0.65625-0.5 1.4414-0.75 2.3594-0.75z"/>
</symbol>
<symbol id="bf" overflow="visible">
<path d="m7.6719-11.531c0.69531 0 1.332 0.12109 1.9062 0.35938 0.57031 0.24219 1.0469 0.60938 1.4219 1.1094 0.3125 0.41797 0.5 0.85156 0.5625 1.2969 0.070312 0.4375 0.10938 1.1562 0.10938 2.1562v6.6094h-3.0312v-6.8438c0-0.60156-0.10547-1.0859-0.3125-1.4531-0.27344-0.53125-0.78906-0.79688-1.5469-0.79688-0.79297 0-1.3906 0.26172-1.7969 0.78125-0.40625 0.52344-0.60938 1.2656-0.60938 2.2344v6.0781h-2.9688v-15.156h2.9688v5.375c0.4375-0.65625 0.9375-1.1094 1.5-1.3594 0.5625-0.25781 1.1602-0.39062 1.7969-0.39062z"/>
</symbol>
<symbol id="be" overflow="visible"></symbol>
<symbol id="bd" overflow="visible">
<path d="m8.6406-15.297h2.9062v2.6875h-2.9062zm0 4.1094h2.9688v11.188h-2.9688zm-2.9844-4.1719c0.1875 0 0.375 0.011719 0.5625 0.03125 0.1875 0.011719 0.37891 0.023437 0.57812 0.03125v2.3906c-0.13672-0.007812-0.27344-0.015625-0.40625-0.015625h-0.48438c-0.46094 0-0.74219 0.13281-0.84375 0.39062-0.10547 0.25-0.15234 0.64844-0.14062 1.1875v0.20312h1.9531v2.0781h-1.9531v9.0625h-2.9688v-9.0625h-1.6562v-2.0781h1.625v-0.71875c0-1.1953 0.26562-2.0859 0.79688-2.6719 0.48828-0.55078 1.4688-0.82812 2.9375-0.82812z"/>
</symbol>
<symbol id="z" overflow="visible">
<path d="m0.21875-9.0469v-2.0938h1.5938v-3.1406h2.9375v3.1406h1.8438v2.0938h-1.8438v5.9375c0 0.46875 0.054688 0.76172 0.17188 0.875 0.125 0.10547 0.48828 0.15625 1.0938 0.15625h0.28125c0.10156 0 0.20312-0.003906 0.29688-0.015625v2.2031l-1.4062 0.046875c-1.4062 0.050781-2.3672-0.1875-2.875-0.71875-0.33594-0.34375-0.5-0.86328-0.5-1.5625v-6.9219z"/>
</symbol>
<symbol id="bc" overflow="visible">
<path d="m4.4531-12.578h-3.0156v-2.7188h3.0156zm-3.0156 1.3281h3.0156v11.25h-3.0156z"/>
</symbol>
<symbol id="bk" overflow="visible">
<path d="m7.7031-11.516c1.1758 0 2.1328 0.30859 2.875 0.92188 0.75 0.60547 1.125 1.6094 1.125 3.0156v7.5781h-3.0469v-6.8438c0-0.58203-0.078125-1.0352-0.23438-1.3594-0.29297-0.57031-0.85156-0.85938-1.6719-0.85938-1.0117 0-1.7031 0.42188-2.0781 1.2656-0.19922 0.44922-0.29688 1.0234-0.29688 1.7188v6.0781h-2.9688v-11.219h2.875v1.6406c0.38281-0.58203 0.75-1 1.0938-1.25 0.60156-0.45703 1.3789-0.6875 2.3281-0.6875z"/>
</symbol>
<symbol id="bj" overflow="visible">
<path d="m6.2812-2.4062c0.69531 0 1.2852-0.25781 1.7656-0.78125 0.47656-0.51953 0.71875-1.3477 0.71875-2.4844 0-1.0625-0.23047-1.8672-0.6875-2.4219-0.46094-0.5625-1.0703-0.84375-1.8281-0.84375-1.0547 0-1.7773 0.48438-2.1719 1.4531-0.21094 0.51172-0.3125 1.1484-0.3125 1.9062 0 0.65625 0.11328 1.2344 0.34375 1.7344 0.39453 0.96094 1.1172 1.4375 2.1719 1.4375zm-0.75-9.1094c0.57031 0 1.0703 0.089844 1.5 0.26562 0.71875 0.29297 1.3008 0.83594 1.75 1.625v-1.625h2.8906v10.672c0 1.4453-0.24609 2.5391-0.73438 3.2812-0.85547 1.2578-2.4844 1.8906-4.8906 1.8906-1.4609 0-2.6484-0.28125-3.5625-0.84375-0.91797-0.5625-1.4297-1.4023-1.5312-2.5156h3.25c0.082031 0.34375 0.21875 0.58594 0.40625 0.73438 0.32031 0.26953 0.85938 0.40625 1.6094 0.40625 1.0703 0 1.7891-0.35547 2.1562-1.0625 0.23828-0.46094 0.35938-1.2266 0.35938-2.2969v-0.71875c-0.29297 0.48047-0.60156 0.83984-0.92188 1.0781-0.59375 0.44922-1.3672 0.67188-2.3125 0.67188-1.4609 0-2.625-0.50391-3.5-1.5156-0.875-1.0078-1.3125-2.3828-1.3125-4.125 0-1.6641 0.42188-3.0664 1.2656-4.2031 0.84375-1.1445 2.0352-1.7188 3.5781-1.7188z"/>
</symbol>
<clipPath id="bz">
<path d="m0 20h274v247.81h-274z"/>
</clipPath>
<clipPath id="by">
<path d="m117 210h110v54.73h-110z"/>
</clipPath>
<clipPath id="bx">
<path d="m0 209h58v55.73h-58z"/>
</clipPath>
<clipPath id="bw">
<path d="m217 215h53v49.73h-53z"/>
</clipPath>
<clipPath id="bv">
<path d="m364 0h195v266.34h-195z"/>
</clipPath>
<clipPath id="bu">
<path d="m590 61h217v206.34h-217z"/>
</clipPath>
<clipPath id="bt">
<path d="m631 61h142v48h-142z"/>
</clipPath>
<clipPath id="bs">
<path d="m625 61h53v48h-53z"/>
</clipPath>
<clipPath id="br">
<path d="m592 22h216.82v37h-216.82z"/>
</clipPath>
</defs>
<rect width="818" height="268" fill="#fff"/>
<g clip-path="url(#bz)">
<path d="m0 20h274.09v247.81h-274.09z" fill="#fff"/>
</g>
<path d="m132.58 80.074h79.023c0.88672 0 1.7383 0.16797 2.5547 0.50781 0.82031 0.33984 1.543 0.82031 2.1719 1.4492 0.625 0.625 1.1094 1.3477 1.4453 2.168 0.33984 0.81641 0.51172 1.668 0.51172 2.5547v31.199c0 0.88672-0.17188 1.7383-0.51172 2.5547-0.33594 0.82031-0.82031 1.543-1.4453 2.168-0.62891 0.62891-1.3516 1.1094-2.1719 1.4492-0.81641 0.33984-1.668 0.50781-2.5547 0.50781h-79.023c-0.88672 0-1.7383-0.16797-2.5586-0.50781-0.81641-0.33984-1.5391-0.82031-2.168-1.4492-0.625-0.625-1.1094-1.3477-1.4492-2.168-0.33594-0.81641-0.50781-1.668-0.50781-2.5547v-31.199c0-0.88672 0.17188-1.7383 0.50781-2.5547 0.33984-0.82031 0.82422-1.543 1.4492-2.168 0.62891-0.62891 1.3516-1.1094 2.168-1.4492 0.82031-0.33984 1.6719-0.50781 2.5586-0.50781z" fill="#d4e6c6"/>
<path transform="matrix(1.5398 0 0 1.5392 .7699 20.77)" d="m85.6 38.53h51.32c0.57586 0 1.1289 0.10913 1.6616 0.32992 0.5302 0.2208 0.99951 0.53296 1.4079 0.94156 0.40589 0.40606 0.72046 0.87557 0.93863 1.4085 0.2207 0.53042 0.33233 1.0837 0.33233 1.6598v20.27c0 0.5761-0.11162 1.1294-0.33233 1.6598-0.21817 0.53296-0.53274 1.0025-0.93863 1.4085-0.40843 0.4086-0.87775 0.72076-1.4105 0.94155-0.5302 0.2208-1.0832 0.32992-1.6591 0.32992h-51.32c-0.57586 0-1.1289-0.10913-1.6616-0.32992-0.5302-0.2208-0.99951-0.53296-1.4079-0.94155-0.40589-0.40606-0.72046-0.87557-0.94117-1.4085-0.21817-0.53042-0.32979-1.0837-0.32979-1.6598v-20.27c0-0.5761 0.11162-1.1294 0.32979-1.6598 0.2207-0.53296 0.53527-1.0025 0.94117-1.4085 0.40843-0.4086 0.87775-0.72076 1.4079-0.94156 0.53274-0.2208 1.0858-0.32992 1.6616-0.32992z" fill="none" stroke="#656565"/>
<g fill="#323232">
<use x="142.167855" y="109.272266" xlink:href="#h"/>
<use x="155.512473" y="109.272266" xlink:href="#h"/>
</g>
<g fill="#323232">
<use x="168.849977" y="109.272266" xlink:href="#a"/>
<use x="172.699812" y="109.272266" xlink:href="#b"/>
<use x="176.549648" y="109.272266" xlink:href="#a"/>
<use x="180.399483" y="109.272266" xlink:href="#b"/>
<use x="184.249319" y="109.272266" xlink:href="#a"/>
<use x="188.099154" y="109.272266" xlink:href="#b"/>
<use x="191.94899" y="109.272266" xlink:href="#a"/>
<use x="195.798825" y="109.272266" xlink:href="#a"/>
</g>
<path transform="matrix(1.5398 0 0 1.5392 .7699 20.77)" d="m85.92 82.999h50.681c0.61645 0 1.2126 0.11928 1.7834 0.3553 0.57079 0.23602 1.0731 0.57356 1.512 1.0101 0.43634 0.43652 0.77374 0.94156 1.0097 1.5126 0.23593 0.57102 0.35516 1.1649 0.35516 1.7841v21.729c0 0.61671-0.11923 1.2131-0.35516 1.7841-0.23593 0.57102-0.57332 1.0735-1.0097 1.51-0.43887 0.43652-0.94117 0.77406-1.512 1.0101-0.57079 0.23602-1.1669 0.3553-1.7834 0.3553h-50.681c-0.61899 0-1.2126-0.11928-1.7834-0.3553-0.57079-0.23602-1.0756-0.57356-1.512-1.0101-0.43634-0.43652-0.77374-0.93902-1.0097-1.51-0.23593-0.57102-0.35516-1.1674-0.35516-1.7841v-21.729c0-0.61924 0.11923-1.2131 0.35516-1.7841 0.23593-0.57102 0.57332-1.0761 1.0097-1.5126 0.43634-0.43652 0.94117-0.77405 1.512-1.0101 0.57079-0.23602 1.1644-0.3553 1.7834-0.3553z" fill="#d4e6c6" stroke="#656565"/>
<g fill="#323232">
<use x="142.167855" y="180.074408" xlink:href="#h"/>
<use x="155.512473" y="180.074408" xlink:href="#h"/>
</g>
<g fill="#323232">
<use x="168.849977" y="180.074408" xlink:href="#a"/>
<use x="172.699812" y="180.074408" xlink:href="#b"/>
<use x="176.549648" y="180.074408" xlink:href="#a"/>
<use x="180.399483" y="180.074408" xlink:href="#b"/>
<use x="184.249319" y="180.074408" xlink:href="#a"/>
<use x="188.099154" y="180.074408" xlink:href="#b"/>
<use x="191.94899" y="180.074408" xlink:href="#a"/>
<use x="195.798825" y="180.074408" xlink:href="#a"/>
</g>
<path d="m132.58 219.4h79.023c0.88672 0 1.7383 0.16797 2.5547 0.50781 0.82031 0.33594 1.543 0.82031 2.1719 1.4453 0.625 0.62891 1.1094 1.3516 1.4453 2.168 0.33984 0.82031 0.51172 1.6719 0.51172 2.5586v31.199c0 0.88281-0.17188 1.7344-0.51172 2.5547-0.33594 0.81641-0.82031 1.5391-1.4453 2.168-0.62891 0.625-1.3516 1.1094-2.1719 1.4453-0.81641 0.33984-1.668 0.51172-2.5547 0.51172h-79.023c-0.88672 0-1.7383-0.17188-2.5586-0.51172-0.81641-0.33594-1.5391-0.82031-2.168-1.4453-0.625-0.62891-1.1094-1.3516-1.4492-2.168-0.33594-0.82031-0.50781-1.6719-0.50781-2.5547v-31.199c0-0.88672 0.17188-1.7383 0.50781-2.5586 0.33984-0.81641 0.82422-1.5391 1.4492-2.168 0.62891-0.625 1.3516-1.1094 2.168-1.4453 0.82031-0.33984 1.6719-0.50781 2.5586-0.50781z" fill="#d4e6c6"/>
<g clip-path="url(#by)">
<path transform="matrix(1.5398 0 0 1.5392 .7699 20.77)" d="m85.6 129.05h51.32c0.57586 0 1.1289 0.10913 1.6616 0.32992 0.5302 0.21826 0.99951 0.53296 1.4079 0.93902 0.40589 0.4086 0.72046 0.87811 0.93863 1.4085 0.2207 0.53296 0.33233 1.0862 0.33233 1.6623v20.27c0 0.57356-0.11162 1.1268-0.33233 1.6598-0.21817 0.53042-0.53274 0.99993-0.93863 1.4085-0.40843 0.40606-0.87775 0.72076-1.4105 0.93902-0.5302 0.2208-1.0832 0.33246-1.6591 0.33246h-51.32c-0.57586 0-1.1289-0.11167-1.6616-0.33246-0.5302-0.21826-0.99951-0.53296-1.4079-0.93902-0.40589-0.4086-0.72046-0.87811-0.94117-1.4085-0.21817-0.53296-0.32979-1.0862-0.32979-1.6598v-20.27c0-0.5761 0.11162-1.1294 0.32979-1.6623 0.2207-0.53042 0.53527-0.99993 0.94117-1.4085 0.40843-0.40606 0.87775-0.72076 1.4079-0.93902 0.53274-0.2208 1.0858-0.32992 1.6616-0.32992z" fill="none" stroke="#656565"/>
</g>
<g fill="#323232">
<use x="142.167855" y="249.337373" xlink:href="#h"/>
<use x="155.512473" y="249.337373" xlink:href="#h"/>
</g>
<g fill="#323232">
<use x="168.849977" y="249.337373" xlink:href="#a"/>
<use x="172.699812" y="249.337373" xlink:href="#b"/>
<use x="176.549648" y="249.337373" xlink:href="#a"/>
<use x="180.399483" y="249.337373" xlink:href="#b"/>
<use x="184.249319" y="249.337373" xlink:href="#a"/>
<use x="188.099154" y="249.337373" xlink:href="#b"/>
<use x="191.94899" y="249.337373" xlink:href="#a"/>
<use x="195.798825" y="249.337373" xlink:href="#a"/>
</g>
<path d="m48.906 102.35c0 1.5156-0.14844 3.0156-0.44531 4.5039-0.29688 1.4844-0.73438 2.9297-1.3164 4.3281-0.57812 1.4023-1.2891 2.7344-2.1328 3.9922-0.84375 1.2617-1.8008 2.4258-2.8711 3.5-1.0742 1.0703-2.2422 2.0273-3.5 2.8711-1.2617 0.84375-2.5938 1.5547-3.9961 2.1328-1.3984 0.58203-2.8438 1.0195-4.332 1.3125-1.4883 0.29688-2.9883 0.44531-4.5039 0.44531-1.5195 0-3.0195-0.14844-4.5078-0.44531-1.4883-0.29297-2.9297-0.73047-4.332-1.3125-1.4023-0.57812-2.7344-1.2891-3.9922-2.1328-1.2617-0.84375-2.4297-1.8008-3.5-2.8711-1.0742-1.0742-2.0312-2.2383-2.875-3.5-0.83984-1.2578-1.5547-2.5898-2.1328-3.9922-0.58203-1.3984-1.0195-2.8438-1.3164-4.3281-0.29297-1.4883-0.44141-2.9883-0.44141-4.5039 0-1.5195 0.14844-3.0195 0.44141-4.5039 0.29688-1.4883 0.73438-2.9336 1.3164-4.332 0.57812-1.4023 1.293-2.7305 2.1328-3.9922 0.84375-1.2617 1.8008-2.4258 2.875-3.5 1.0703-1.0703 2.2383-2.0273 3.5-2.8711 1.2578-0.83984 2.5898-1.5508 3.9922-2.1328 1.4023-0.57812 2.8438-1.0195 4.332-1.3125 1.4883-0.29688 2.9883-0.44531 4.5078-0.44531 1.5156 0 3.0156 0.14844 4.5039 0.44531 1.4883 0.29297 2.9336 0.73438 4.332 1.3125 1.4023 0.58203 2.7344 1.293 3.9961 2.1328 1.2578 0.84375 2.4258 1.8008 3.5 2.8711 1.0703 1.0742 2.0273 2.2383 2.8711 3.5s1.5547 2.5898 2.1328 3.9922c0.58203 1.3984 1.0195 2.8438 1.3164 4.332 0.29687 1.4844 0.44531 2.9844 0.44531 4.5039z" fill="#f5f5f5"/>
<path transform="matrix(1.5398 0 0 1.5392 .7699 20.77)" d="m31.261 53.001c0 0.9847-0.0964 1.9592-0.2892 2.9262-0.1928 0.9644-0.47693 1.9034-0.85491 2.812-0.37545 0.9111-0.83716 1.7765-1.3851 2.5937-0.54796 0.81974-1.1695 1.576-1.8646 2.2739-0.69763 0.69538-1.4561 1.3172-2.273 1.8653-0.8194 0.54818-1.6845 1.0101-2.5952 1.3857-0.90819 0.37814-1.8468 0.66239-2.8134 0.85273-0.96654 0.19288-1.9407 0.28932-2.925 0.28932-0.98683 0-1.961-0.09644-2.9275-0.28932-0.96654-0.19034-1.9026-0.47458-2.8134-0.85273-0.91072-0.37561-1.7758-0.8375-2.5926-1.3857-0.8194-0.54818-1.5779-1.17-2.273-1.8653-0.69763-0.69792-1.3192-1.4542-1.8671-2.2739-0.54542-0.8172-1.0097-1.6826-1.3851-2.5937-0.37799-0.90856-0.66212-1.8476-0.85491-2.812-0.19026-0.96693-0.28666-1.9415-0.28666-2.9262 0-0.98724 0.0964-1.9618 0.28666-2.9287 0.1928-0.9644 0.47692-1.9034 0.85491-2.812 0.37545-0.9111 0.83969-1.774 1.3851-2.5937 0.54796-0.81974 1.1695-1.576 1.8671-2.2739 0.69509-0.69538 1.4536-1.3172 2.273-1.8653 0.81686-0.54564 1.6819-1.0075 2.5926-1.3857 0.91072-0.37561 1.8468-0.66239 2.8134-0.85273 0.96654-0.19288 1.9407-0.28932 2.9275-0.28932 0.98429 0 1.9584 0.09644 2.925 0.28932 0.96654 0.19034 1.9052 0.47712 2.8134 0.85273 0.91072 0.37814 1.7758 0.84004 2.5952 1.3857 0.81686 0.54818 1.5754 1.17 2.273 1.8653 0.69509 0.69792 1.3166 1.4542 1.8646 2.2739 0.54796 0.81974 1.0097 1.6826 1.3851 2.5937 0.37799 0.90856 0.66211 1.8476 0.85491 2.812 0.1928 0.96693 0.2892 1.9415 0.2892 2.9287z" fill="none" stroke="#656565"/>
<g fill="#323232">
<use x="14.195133" y="107.733089" xlink:href="#t"/>
</g>
<g fill="#323232">
<use x="26.513621" y="112.35062" xlink:href="#bb"/>
</g>
<path d="m48.906 240.87c0 1.5156-0.14844 3.0195-0.44531 4.5039-0.29688 1.4883-0.73438 2.9297-1.3164 4.332-0.57812 1.4023-1.2891 2.7305-2.1328 3.9922s-1.8008 2.4258-2.8711 3.5c-1.0742 1.0703-2.2422 2.0273-3.5 2.8711-1.2617 0.83984-2.5938 1.5508-3.9961 2.1328-1.3984 0.57812-2.8438 1.0156-4.332 1.3125s-2.9883 0.44531-4.5039 0.44531c-1.5195 0-3.0195-0.14844-4.5078-0.44531s-2.9297-0.73438-4.332-1.3125c-1.4023-0.58203-2.7344-1.293-3.9922-2.1328-1.2617-0.84375-2.4297-1.8008-3.5-2.8711-1.0742-1.0742-2.0312-2.2383-2.875-3.5-0.83984-1.2617-1.5547-2.5898-2.1328-3.9922-0.58203-1.4023-1.0195-2.8438-1.3164-4.332-0.29297-1.4844-0.44141-2.9883-0.44141-4.5039s0.14844-3.0156 0.44141-4.5039c0.29688-1.4844 0.73438-2.9297 1.3164-4.332 0.57812-1.3984 1.293-2.7305 2.1328-3.9883 0.84375-1.2617 1.8008-2.4297 2.875-3.5 1.0703-1.0742 2.2383-2.0312 3.5-2.8711 1.2578-0.84375 2.5898-1.5547 3.9922-2.1328 1.4023-0.58203 2.8438-1.0195 4.332-1.3164 1.4883-0.29297 2.9883-0.44141 4.5078-0.44141 1.5156 0 3.0156 0.14844 4.5039 0.44141 1.4883 0.29688 2.9336 0.73438 4.332 1.3164 1.4023 0.57812 2.7344 1.2891 3.9961 2.1328 1.2578 0.83984 2.4258 1.7969 3.5 2.8711 1.0703 1.0703 2.0273 2.2383 2.8711 3.5 0.84375 1.2578 1.5547 2.5898 2.1328 3.9883 0.58203 1.4023 1.0195 2.8477 1.3164 4.332 0.29687 1.4883 0.44531 2.9883 0.44531 4.5039z" fill="#f5f5f5"/>
<g clip-path="url(#bx)">
<path transform="matrix(1.5398 0 0 1.5392 .7699 20.77)" d="m31.261 143c0 0.9847-0.0964 1.9618-0.2892 2.9262-0.1928 0.96693-0.47693 1.9034-0.85491 2.8145-0.37545 0.9111-0.83716 1.774-1.3851 2.5937-0.54796 0.81974-1.1695 1.576-1.8646 2.2739-0.69763 0.69538-1.4561 1.3172-2.273 1.8653-0.8194 0.54564-1.6845 1.0075-2.5952 1.3857-0.90819 0.37561-1.8468 0.65985-2.8134 0.85273-0.96654 0.19288-1.9407 0.28932-2.925 0.28932-0.98683 0-1.961-0.096439-2.9275-0.28932-0.96654-0.19288-1.9026-0.47712-2.8134-0.85273-0.91072-0.37814-1.7758-0.84004-2.5926-1.3857-0.8194-0.54818-1.5779-1.17-2.273-1.8653-0.69763-0.69792-1.3192-1.4542-1.8671-2.2739-0.54542-0.81974-1.0097-1.6826-1.3851-2.5937-0.37799-0.9111-0.66212-1.8476-0.85491-2.8145-0.19026-0.9644-0.28666-1.9415-0.28666-2.9262s0.0964-1.9592 0.28666-2.9262c0.1928-0.96693 0.47692-1.9034 0.85491-2.8145 0.37545-0.90856 0.83969-1.774 1.3851-2.5912 0.54796-0.81974 1.1695-1.5786 1.8671-2.2739 0.69509-0.69792 1.4536-1.3197 2.273-1.8653 0.81686-0.54818 1.6819-1.0101 2.5926-1.3857 0.91072-0.37814 1.8468-0.66239 2.8134-0.85527 0.96654-0.19034 1.9407-0.28678 2.9275-0.28678 0.98429 0 1.9584 0.096439 2.925 0.28678 0.96654 0.19288 1.9052 0.47712 2.8134 0.85527 0.91072 0.37561 1.7758 0.8375 2.5952 1.3857 0.81686 0.54564 1.5754 1.1674 2.273 1.8653 0.69509 0.69538 1.3166 1.4542 1.8646 2.2739 0.54796 0.8172 1.0097 1.6826 1.3851 2.5912 0.37799 0.9111 0.66211 1.8501 0.85491 2.8145 0.1928 0.96693 0.2892 1.9415 0.2892 2.9262z" fill="none" stroke="#656565"/>
</g>
<g fill="#323232">
<use x="14.195133" y="246.259019" xlink:href="#t"/>
</g>
<g fill="#323232">
<use x="26.513621" y="250.87655" xlink:href="#ba"/>
</g>
<path transform="matrix(1.5398 0 0 1.5392 .7699 20.77)" d="m31.261 98c0 0.9847-0.0964 1.9592-0.2892 2.9262-0.1928 0.96693-0.47693 1.9034-0.85491 2.8145-0.37545 0.90856-0.83716 1.774-1.3851 2.5937-0.54796 0.8172-1.1695 1.576-1.8646 2.2714-0.69763 0.69792-1.4561 1.3197-2.273 1.8653-0.8194 0.54818-1.6845 1.0101-2.5952 1.3857-0.90819 0.37814-1.8468 0.66239-2.8134 0.85527-0.96654 0.19034-1.9407 0.28678-2.925 0.28678-0.98683 0-1.961-0.09644-2.9275-0.28678-0.96654-0.19288-1.9026-0.47712-2.8134-0.85527-0.91072-0.37561-1.7758-0.8375-2.5926-1.3857-0.8194-0.54564-1.5779-1.1674-2.273-1.8653-0.69763-0.69538-1.3192-1.4542-1.8671-2.2714-0.54542-0.81974-1.0097-1.6852-1.3851-2.5937-0.37799-0.9111-0.66212-1.8476-0.85491-2.8145-0.19026-0.96693-0.28666-1.9415-0.28666-2.9262 0-0.9847 0.0964-1.9618 0.28666-2.9262 0.1928-0.96693 0.47692-1.9034 0.85491-2.8145 0.37545-0.90856 0.83969-1.774 1.3851-2.5937 0.54796-0.8172 1.1695-1.576 1.8671-2.2714 0.69509-0.69792 1.4536-1.3197 2.273-1.8653 0.81686-0.54818 1.6819-1.0101 2.5926-1.3882 0.91072-0.37561 1.8468-0.65985 2.8134-0.85273s1.9407-0.28932 2.9275-0.28932c0.98429 0 1.9584 0.096439 2.925 0.28932s1.9052 0.47712 2.8134 0.85273c0.91072 0.37814 1.7758 0.84004 2.5952 1.3882 0.81686 0.54564 1.5754 1.1674 2.273 1.8653 0.69509 0.69538 1.3166 1.4542 1.8646 2.2714 0.54796 0.81974 1.0097 1.6852 1.3851 2.5937 0.37799 0.9111 0.66211 1.8476 0.85491 2.8145 0.1928 0.9644 0.2892 1.9415 0.2892 2.9262z" fill="#f5f5f5" stroke="#656565"/>
<g fill="#323232">
<use x="14.195133" y="176.996054" xlink:href="#t"/>
</g>
<g fill="#323232">
<use x="26.513621" y="181.613585" xlink:href="#az"/>
</g>
<path d="m49.422 101.78 3.418 3.1094-1.0391 1.1367-3.4141-3.1094m7.8672 5.082 3.4141 3.1055-1.0352 1.1406-3.4141-3.1094m7.8672 5.0781 3.4141 3.1094-1.0352 1.1406-3.418-3.1094m7.8711 5.0781 3.4141 3.1094-1.0352 1.1367-3.418-3.1094m7.8672 5.082 3.418 3.1094-1.0391 1.1367-3.4141-3.1094m7.8672 5.082 3.418 3.1055-1.0391 1.1406-3.4141-3.1094m7.8672 5.0781 3.4141 3.1094-1.0352 1.1367-3.4141-3.1055m7.8672 5.0781 3.4141 3.1094-1.0352 1.1367-3.418-3.1094m7.8711 5.082 3.4141 3.1094-1.0352 1.1367-3.418-3.1094m7.8672 5.0781 3.418 3.1094-1.0391 1.1406-3.4141-3.1094m7.8672 5.0781 3.1367 2.8555-1.0391 1.1367-3.1328-2.8555" fill="#b46403"/>
<path transform="matrix(1.5398 0 0 1.5392 .7699 20.77)" d="m80.43 97.769-5.3806-1.5202 2.6104-0.99993 0.76105-2.6902z" fill="#b46403" stroke="#b46403" stroke-miterlimit="10"/>
<path d="m49.578 101.97 2.2344 4.043-1.3477 0.74609-2.2344-4.043m5.8164 7.3398 2.2305 4.0391-1.3477 0.74609-2.2305-4.043m5.8125 7.3398 2.2344 4.043-1.3477 0.74219-2.2344-4.0391m5.8164 7.3398 2.2344 4.0391-1.3477 0.74609-2.2344-4.043m5.8164 7.3398 2.2305 4.043-1.3477 0.74219-2.2344-4.0391m5.8164 7.3359 2.2344 4.043-1.3477 0.74609-2.2344-4.043m5.8164 7.3398 2.2344 4.043-1.3477 0.74219-2.2344-4.043m5.8125 7.3398 2.2344 4.043-1.3477 0.74609-2.2344-4.043m5.8164 7.3398 2.2344 4.0391-1.3477 0.74609-2.2344-4.043m5.8164 7.3398 2.2305 4.043-1.3477 0.74219-2.2305-4.0391m5.8125 7.3398 2.2344 4.0391-1.3477 0.74609-2.2344-4.043m5.8164 7.3398 2.2344 4.043-1.3477 0.74219-2.2344-4.0391m5.8164 7.3359 2.2305 4.043-1.3477 0.74609-2.2344-4.043m5.8164 7.3398 2.2344 4.043-1.3477 0.74219-2.2344-4.043m5.8164 7.3398 2.2344 4.043-1.3477 0.74609-2.2344-4.043m5.8125 7.3398 2.2344 4.0391-1.3477 0.74609-2.2344-4.043m5.8164 7.3398 1.8945 3.4297-1.3477 0.74609-1.8945-3.4297" fill="#b46403"/>
<path transform="matrix(1.5398 0 0 1.5392 .7699 20.77)" d="m80.719 142.55-4.6094-3.1698 2.8007-0.11928 1.5804-2.3019z" fill="#b46403" stroke="#b46403" stroke-miterlimit="10"/>
<path d="m48.391 171.04 3.4336-3.0859 1.0273 1.1445-3.4336 3.0859m5.8398-7.3203 3.4336-3.0898 1.0273 1.1445-3.4336 3.0898m5.8398-7.3242 3.4336-3.0859 1.0273 1.1445-3.4336 3.0859m5.8398-7.3203 3.4336-3.0898 1.0312 1.1445-3.4375 3.0898m5.8398-7.3242 3.4336-3.0859 1.0312 1.1445-3.4336 3.0859m5.8359-7.3203 3.4336-3.0898 1.0312 1.1445-3.4336 3.0898m5.8359-7.3242 3.4336-3.0859 1.0312 1.1445-3.4336 3.0859m5.8359-7.3203 3.4336-3.0898 1.0312 1.1445-3.4336 3.0898m5.8359-7.3242 3.4336-3.0859 1.0312 1.1445-3.4336 3.0859m5.8359-7.3203 3.4336-3.0898 1.0312 1.1445-3.4336 3.0898m5.8359-7.3242 2.7422-2.4648 1.0312 1.1445-2.7422 2.4648" fill="#b46403"/>
<path transform="matrix(1.5398 0 0 1.5392 .7699 20.77)" d="m80.43 53.75-2.0498 5.2103-0.74076-2.7003-2.6003-1.0202z" fill="#b46403" stroke="#b46403" stroke-miterlimit="10"/>
<path d="m49.422 171.04 3.418 3.1094-1.0391 1.1367-3.4141-3.1055m7.8672 5.0781 3.4141 3.1094-1.0352 1.1367-3.4141-3.1094m7.8672 5.082 3.4141 3.1094-1.0352 1.1367-3.418-3.1094m7.8711 5.0781 3.4141 3.1094-1.0352 1.1406-3.418-3.1094m7.8672 5.0781 3.418 3.1094-1.0391 1.1367-3.4141-3.1094m7.8672 5.082 3.418 3.1094-1.0391 1.1367-3.4141-3.1094m7.8672 5.082 3.4141 3.1055-1.0352 1.1406-3.4141-3.1094m7.8672 5.0781 3.4141 3.1094-1.0352 1.1367-3.418-3.1055m7.8711 5.0781 3.4141 3.1094-1.0352 1.1367-3.418-3.1094m7.8672 5.082 3.418 3.1094-1.0391 1.1367-3.4141-3.1094m7.8672 5.0781 3.1367 2.8555-1.0391 1.1367-3.1328-2.8516" fill="#b46403"/>
<path transform="matrix(1.5398 0 0 1.5392 .7699 20.77)" d="m80.43 142.77-5.3806-1.5202 2.6104-0.99992 0.76105-2.6902z" fill="#b46403" stroke="#b46403" stroke-miterlimit="10"/>
<path d="m48.395 240.3 3.4492-3.0703 1.0234 1.1523-3.4492 3.0664m5.8789-7.2852 3.4492-3.0703 1.0234 1.1484-3.4492 3.0703m5.8789-7.2891 3.4492-3.0664 1.0234 1.1484-3.4492 3.0703m5.8789-7.2891 3.4531-3.0703 1.0234 1.1523-3.4531 3.0664m5.8789-7.2852 3.4531-3.0703 1.0234 1.1484-3.4531 3.0703m5.8789-7.2891 3.4531-3.0664 1.0234 1.1484-3.4531 3.0703m5.8789-7.2891 3.4531-3.0703 1.0234 1.1523-3.4531 3.0664m5.8828-7.2852 3.4492-3.0703 1.0234 1.1484-3.4492 3.0703m5.8789-7.2891 3.4492-3.0664 1.0234 1.1484-3.4492 3.0703m5.8789-7.2891 3.4492-3.0703 1.0234 1.1523-3.4492 3.0664m5.8789-7.2852 2.3555-2.0977 1.0234 1.1523-2.3555 2.0938" fill="#b46403"/>
<path transform="matrix(1.5398 0 0 1.5392 .7699 20.77)" d="m80.42 99.269-2.0701 5.19-0.73061-2.7003-2.5901-1.038z" fill="#b46403" stroke="#b46403" stroke-miterlimit="10"/>
<path d="m48.23 240.5 2.2461-4.0391 1.3438 0.75-2.2422 4.0352m3.1406-8.8203 2.2422-4.0352 1.3477 0.74609-2.2422 4.0352m3.1406-8.8203 2.2422-4.0352 1.3477 0.74609-2.2461 4.0391m3.1406-8.8203 2.2461-4.0391 1.3438 0.75-2.2422 4.0352m3.1406-8.8203 2.2461-4.0352 1.3438 0.74609-2.2422 4.0391m3.1406-8.8203 2.2422-4.0391 1.3477 0.75-2.2422 4.0352m3.1406-8.8203 2.2422-4.0352 1.3477 0.74609-2.2461 4.0352m3.1406-8.8203 2.2461-4.0352 1.3438 0.74609-2.2422 4.0391m3.1406-8.8203 2.2461-4.0391 1.3438 0.75-2.2422 4.0352m3.1406-8.8203 2.2422-4.0352 1.3477 0.74609-2.2461 4.0391m3.1445-8.8203 2.2422-4.0391 1.3477 0.75-2.2461 4.0352m3.1406-8.8203 2.2461-4.0352 1.3438 0.74609-2.2422 4.0352m3.1406-8.8203 2.2422-4.0352 1.3477 0.74609-2.2422 4.0391m3.1406-8.8203 2.2422-4.0352 1.3477 0.74609-2.2461 4.0352m3.1445-8.8203 2.2422-4.0352 1.3477 0.74609-2.2461 4.0391m3.1406-8.8203 2.2461-4.0391 1.3438 0.75-2.2422 4.0352m3.1406-8.8203 1.5625-2.8086 1.3438 0.75-1.5586 2.8047" fill="#b46403"/>
<path transform="matrix(1.5398 0 0 1.5392 .7699 20.77)" d="m80.719 53.981-0.24861 5.5884-1.5703-2.3095-2.8007-0.11928z" fill="#b46403" stroke="#b46403" stroke-miterlimit="10"/>
<path transform="matrix(1.5398 0 0 1.5392 .7699 20.77)" d="m141.26 53.001h15.13" fill="none" stroke="#656565" stroke-miterlimit="10"/>
<path transform="matrix(1.5398 0 0 1.5392 .7699 20.77)" d="m160.14 53.001-5.0001 2.4998 1.2507-2.4998-1.2507-2.5024z" fill="#656565" stroke="#656565" stroke-miterlimit="10"/>
<path transform="matrix(1.5398 0 0 1.5392 .7699 20.77)" d="m141.26 98.409h15.13" fill="none" stroke="#656565" stroke-miterlimit="10"/>
<path transform="matrix(1.5398 0 0 1.5392 .7699 20.77)" d="m160.14 98.409-5.0001 2.5024 1.2507-2.5024-1.2507-2.4998z" fill="#656565" stroke="#656565" stroke-miterlimit="10"/>
<path transform="matrix(1.5398 0 0 1.5392 .7699 20.77)" d="m141.26 143.41h15.13" fill="none" stroke="#656565" stroke-miterlimit="10"/>
<path d="m247.36 241.5-7.6992 3.8477 1.9258-3.8477-1.9258-3.8477z" fill="#656565"/>
<g clip-path="url(#bw)">
<path transform="matrix(1.5398 0 0 1.5392 .7699 20.77)" d="m160.14 143.41-5.0001 2.4998 1.2507-2.4998-1.2507-2.4998z" fill="none" stroke="#656565" stroke-miterlimit="10"/>
</g>
<g>
<use x="73.670333" y="46.166009" xlink:href="#ay"/>
</g>
<g>
<use x="89.239054" y="46.166009" xlink:href="#k"/>
</g>
<g>
<use x="95.227687" y="46.166009" xlink:href="#au"/>
</g>
<g>
<use x="107.217887" y="46.166009" xlink:href="#j"/>
<use x="114.396486" y="46.166009" xlink:href="#at"/>
</g>
<g>
<use x="122.786608" y="46.166009" xlink:href="#k"/>
</g>
<g>
<use x="128.775241" y="46.166009" xlink:href="#as"/>
</g>
<g>
<use x="141.942473" y="46.166009" xlink:href="#ar"/>
</g>
<g>
<use x="155.109704" y="46.166009" xlink:href="#j"/>
<use x="162.288303" y="46.166009" xlink:href="#k"/>
</g>
<g>
<use x="168.276936" y="46.166009" xlink:href="#aq"/>
</g>
<g>
<use x="181.444168" y="46.166009" xlink:href="#y"/>
</g>
<g>
<use x="194.6114" y="46.166009" xlink:href="#ax"/>
</g>
<g>
<use x="200.600033" y="46.166009" xlink:href="#aw"/>
</g>
<g>
<use x="213.767265" y="46.166009" xlink:href="#j"/>
<use x="220.945864" y="46.166009" xlink:href="#j"/>
<use x="228.124462" y="46.166009" xlink:href="#k"/>
</g>
<g>
<use x="234.113095" y="46.166009" xlink:href="#y"/>
</g>
<g>
<use x="247.280327" y="46.166009" xlink:href="#av"/>
</g>
<g clip-path="url(#bv)">
<path d="m16.57 0h772.88v266.34h-772.88z" fill="#fff"/>
</g>
<path transform="matrix(1.5304 0 0 1.5307 17.334 .7653)" d="m243.5 135.22v-8.3399l67.502-0.030624-0.01021-5.3694 21.509 9.519-21.491 9.5394-0.007657-5.3592z" fill="none" stroke="#808080" stroke-linejoin="round" stroke-miterlimit="10"/>
<g>
<use x="401.739116" y="116.330312" xlink:href="#ap"/>
<use x="412.968013" y="116.330312" xlink:href="#ak"/>
</g>
<g>
<use x="416.708734" y="116.330312" xlink:href="#i"/>
</g>
<g>
<use x="421.385477" y="116.330312" xlink:href="#d"/>
</g>
<g>
<use x="430.749064" y="116.330312" xlink:href="#aj"/>
<use x="436.355095" y="116.330312" xlink:href="#w"/>
</g>
<g>
<use x="445.718682" y="116.330312" xlink:href="#ai"/>
</g>
<g>
<use x="455.082269" y="116.330312" xlink:href="#i"/>
</g>
<g>
<use x="459.759012" y="116.330312" xlink:href="#d"/>
</g>
<g>
<use x="469.122599" y="116.330312" xlink:href="#v"/>
</g>
<g>
<use x="473.799342" y="116.330312" xlink:href="#u"/>
</g>
<g>
<use x="483.162929" y="116.330312" xlink:href="#d"/>
</g>
<g>
<use x="492.526516" y="116.330312" xlink:href="#i"/>
</g>
<g>
<use x="497.203259" y="116.330312" xlink:href="#ao"/>
</g>
<g>
<use x="509.361444" y="116.330312" xlink:href="#d"/>
</g>
<g>
<use x="518.725031" y="116.330312" xlink:href="#d"/>
</g>
<g>
<use x="528.088618" y="116.330312" xlink:href="#w"/>
</g>
<g>
<use x="430.74585" y="136.228918" xlink:href="#u"/>
</g>
<g>
<use x="440.109437" y="136.228918" xlink:href="#an"/>
</g>
<g>
<use x="449.473024" y="136.228918" xlink:href="#i"/>
</g>
<g>
<use x="454.149767" y="136.228918" xlink:href="#am"/>
</g>
<g>
<use x="463.513354" y="136.228918" xlink:href="#v"/>
</g>
<g>
<use x="468.190097" y="136.228918" xlink:href="#x"/>
<use x="476.607561" y="136.228918" xlink:href="#i"/>
</g>
<g>
<use x="481.284304" y="136.228918" xlink:href="#d"/>
</g>
<g>
<use x="490.647891" y="136.228918" xlink:href="#al"/>
</g>
<g>
<use x="500.011478" y="136.228918" xlink:href="#x"/>
</g>
<path transform="matrix(1.5304 0 0 1.5307 17.334 .7653)" d="m263.18 105.21v5.3618l-19.681-9.5215 19.671-9.5394v5.3592l69.33-0.03828v8.3399z" fill="none" stroke="#808080" stroke-linejoin="round" stroke-miterlimit="10"/>
<g>
<use x="254.6795" y="106" xlink:href="#s"/>
</g>
<g>
<use x="265.6795" y="106" xlink:href="#r"/>
</g>
<g>
<use x="272.6795" y="106" xlink:href="#q"/>
</g>
<g>
<use x="283.6795" y="110" xlink:href="#ah"/>
</g>
<g>
<use x="292.6795" y="106" xlink:href="#p"/>
</g>
<g>
<use x="300.6795" y="106" xlink:href="#o"/>
</g>
<g>
<use x="316.6795" y="106" xlink:href="#n"/>
</g>
<g>
<use x="256.0128" y="176" xlink:href="#s"/>
</g>
<g>
<use x="267.0128" y="176" xlink:href="#r"/>
</g>
<g>
<use x="274.0128" y="176" xlink:href="#q"/>
</g>
<g>
<use x="285.0128" y="180" xlink:href="#ag"/>
</g>
<g>
<use x="294.0128" y="176" xlink:href="#p"/>
</g>
<g>
<use x="302.0128" y="176" xlink:href="#o"/>
</g>
<g>
<use x="319.0128" y="176" xlink:href="#n"/>
</g>
<g>
<use x="256.0128" y="245" xlink:href="#s"/>
</g>
<g>
<use x="267.0128" y="245" xlink:href="#r"/>
</g>
<g>
<use x="274.0128" y="245" xlink:href="#q"/>
</g>
<g>
<use x="285.0128" y="249" xlink:href="#af"/>
</g>
<g>
<use x="294.0128" y="245" xlink:href="#p"/>
</g>
<g>
<use x="302.0128" y="245" xlink:href="#o"/>
</g>
<g>
<use x="319.0128" y="245" xlink:href="#n"/>
</g>
<g clip-path="url(#bu)">
<path d="m35.664 0.81641h771.51v266.52h-771.51z" fill="#fff"/>
</g>
<path d="m652.5 102.68c0 1.5078-0.14844 3.0039-0.44141 4.4805-0.29297 1.4805-0.73047 2.918-1.3047 4.3125-0.57422 1.3945-1.2812 2.7188-2.1172 3.9727s-1.7852 2.4141-2.8516 3.4805c-1.0625 1.0664-2.2188 2.0195-3.4727 2.8594-1.25 0.83594-2.5703 1.543-3.9609 2.1211s-2.8242 1.0117-4.2969 1.3086c-1.4766 0.29297-2.9688 0.44141-4.4727 0.44141-1.5039 0-2.9961-0.14844-4.4688-0.44141-1.4766-0.29688-2.9102-0.73047-4.3008-1.3086s-2.7109-1.2852-3.9609-2.1211c-1.25-0.83984-2.4102-1.793-3.4727-2.8594-1.0664-1.0664-2.0156-2.2266-2.8516-3.4805s-1.5391-2.5781-2.1172-3.9727c-0.57422-1.3945-1.0117-2.832-1.3047-4.3125-0.29297-1.4766-0.4375-2.9727-0.4375-4.4805 0-1.5078 0.14453-3.0039 0.4375-4.4805 0.29297-1.4805 0.73047-2.918 1.3047-4.3125 0.57813-1.3945 1.2812-2.7188 2.1172-3.9727s1.7852-2.4141 2.8516-3.4805c1.0625-1.0664 2.2227-2.0195 3.4727-2.8555 1.25-0.83984 2.5703-1.5469 3.9609-2.125s2.8242-1.0117 4.3008-1.3086c1.4727-0.29297 2.9648-0.44141 4.4688-0.44141 1.5039 0 2.9961 0.14844 4.4727 0.44141 1.4727 0.29688 2.9062 0.73047 4.2969 1.3086s2.7109 1.2852 3.9609 2.125c1.2539 0.83594 2.4102 1.7891 3.4727 2.8555 1.0664 1.0664 2.0156 2.2266 2.8516 3.4805s1.543 2.5781 2.1172 3.9727c0.57422 1.3945 1.0117 2.832 1.3047 4.3125 0.29297 1.4766 0.44141 2.9727 0.44141 4.4805z" fill="#f5f5f5"/>
<path transform="matrix(1.5277 0 0 1.5317 36.428 1.5829)" d="m403.26 66c0 0.9844-0.097161 1.9611-0.28893 2.9251-0.19177 0.96654-0.47814 1.905-0.854 2.8155-0.37586 0.91044-0.83866 1.775-1.3858 2.5936s-1.1685 1.5761-1.8665 2.2723c-0.69547 0.69622-1.4523 1.3185-2.2731 1.8668-0.8182 0.54575-1.6824 1.0074-2.5927 1.3848-0.91025 0.37744-1.8486 0.66052-2.8126 0.85433-0.9665 0.19127-1.9432 0.28818-2.9276 0.28818s-1.9611-0.09691-2.9251-0.28818c-0.9665-0.19382-1.9049-0.4769-2.8151-0.85433-0.91025-0.37744-1.7745-0.83903-2.5927-1.3848-0.8182-0.5483-1.5776-1.1706-2.2731-1.8668-0.69803-0.69622-1.3194-1.4536-1.8665-2.2723s-1.0074-1.6832-1.3858-2.5936c-0.37586-0.91044-0.66223-1.8489-0.854-2.8155-0.19177-0.964-0.28637-1.9407-0.28637-2.9251 0-0.9844 0.094605-1.9611 0.28637-2.9251 0.19177-0.96655 0.47814-1.905 0.854-2.8155 0.37842-0.91044 0.83866-1.775 1.3858-2.5936s1.1685-1.5761 1.8665-2.2723c0.69547-0.69622 1.4549-1.3185 2.2731-1.8668 0.8182-0.54575 1.6824-1.0074 2.5927-1.3848s1.8486-0.66052 2.8151-0.85434c0.96395-0.19127 1.9407-0.28818 2.9251-0.28818s1.9611 0.096909 2.9276 0.28818c0.96395 0.19382 1.9023 0.4769 2.8126 0.85434 0.91025 0.37744 1.7745 0.83903 2.5927 1.3848 0.82076 0.5483 1.5776 1.1706 2.2731 1.8668 0.69803 0.69622 1.3194 1.4536 1.8665 2.2723s1.01 1.6832 1.3858 2.5936c0.37586 0.91044 0.66223 1.8489 0.854 2.8155 0.19177 0.964 0.28893 1.9407 0.28893 2.9251z" fill="none" stroke="#656565"/>
<g fill="#323232">
<use x="618.065535" y="108.03677" xlink:href="#m"/>
</g>
<g fill="#323232">
<use x="630.287423" y="112.631903" xlink:href="#ae"/>
</g>
<path d="m790 102.68c0 1.5078-0.14844 3.0039-0.44141 4.4805-0.29297 1.4805-0.72656 2.918-1.3047 4.3125-0.57422 1.3945-1.2812 2.7188-2.1172 3.9727-0.83594 1.2539-1.7852 2.4141-2.8516 3.4805-1.0625 1.0664-2.2188 2.0195-3.4727 2.8594-1.25 0.83594-2.5703 1.543-3.9609 2.1211-1.3906 0.57812-2.8242 1.0117-4.2969 1.3086-1.4766 0.29297-2.9688 0.44141-4.4727 0.44141-1.5039 0-2.9961-0.14844-4.4688-0.44141-1.4766-0.29688-2.9102-0.73047-4.3008-1.3086s-2.7109-1.2852-3.9609-2.1211c-1.25-0.83984-2.4102-1.793-3.4727-2.8594s-2.0156-2.2266-2.8516-3.4805c-0.83594-1.2539-1.5391-2.5781-2.1172-3.9727-0.57422-1.3945-1.0078-2.832-1.3047-4.3125-0.29297-1.4766-0.4375-2.9727-0.4375-4.4805 0-1.5078 0.14453-3.0039 0.4375-4.4805 0.29688-1.4805 0.73047-2.918 1.3047-4.3125 0.57812-1.3945 1.2812-2.7188 2.1172-3.9727 0.83594-1.2539 1.7891-2.4141 2.8516-3.4805 1.0625-1.0664 2.2227-2.0195 3.4727-2.8555 1.25-0.83984 2.5703-1.5469 3.9609-2.125s2.8242-1.0117 4.3008-1.3086c1.4727-0.29297 2.9648-0.44141 4.4688-0.44141 1.5039 0 2.9961 0.14844 4.4727 0.44141 1.4727 0.29688 2.9062 0.73047 4.2969 1.3086 1.3906 0.57812 2.7109 1.2852 3.9609 2.125 1.2539 0.83594 2.4102 1.7891 3.4727 2.8555 1.0664 1.0664 2.0156 2.2266 2.8516 3.4805 0.83594 1.2539 1.543 2.5781 2.1172 3.9727 0.57812 1.3945 1.0117 2.832 1.3047 4.3125 0.29297 1.4766 0.44141 2.9727 0.44141 4.4805z" fill="#f5f5f5"/>
<path transform="matrix(1.5277 0 0 1.5317 36.428 1.5829)" d="m493.26 66c0 0.9844-0.097162 1.9611-0.28893 2.9251-0.19177 0.96654-0.47558 1.905-0.854 2.8155-0.37586 0.91044-0.83866 1.775-1.3858 2.5936s-1.1685 1.5761-1.8665 2.2723c-0.69547 0.69622-1.4523 1.3185-2.2731 1.8668-0.8182 0.54575-1.6824 1.0074-2.5927 1.3848-0.91025 0.37744-1.8486 0.66052-2.8126 0.85433-0.9665 0.19127-1.9432 0.28818-2.9276 0.28818s-1.9611-0.09691-2.9251-0.28818c-0.9665-0.19382-1.9049-0.4769-2.8151-0.85433-0.91025-0.37744-1.7745-0.83903-2.5927-1.3848-0.8182-0.5483-1.5776-1.1706-2.2731-1.8668-0.69547-0.69622-1.3194-1.4536-1.8665-2.2723s-1.0074-1.6832-1.3858-2.5936c-0.37586-0.91044-0.65968-1.8489-0.854-2.8155-0.19177-0.964-0.28637-1.9407-0.28637-2.9251 0-0.9844 0.094605-1.9611 0.28637-2.9251 0.19432-0.96655 0.47814-1.905 0.854-2.8155 0.37842-0.91044 0.83866-1.775 1.3858-2.5936s1.1711-1.5761 1.8665-2.2723c0.69547-0.69622 1.4549-1.3185 2.2731-1.8668 0.8182-0.54575 1.6824-1.0074 2.5927-1.3848s1.8486-0.66052 2.8151-0.85434c0.96395-0.19127 1.9407-0.28818 2.9251-0.28818s1.9611 0.096909 2.9276 0.28818c0.96395 0.19382 1.9023 0.4769 2.8126 0.85434s1.7745 0.83903 2.5927 1.3848c0.82076 0.5483 1.5776 1.1706 2.2731 1.8668 0.69803 0.69622 1.3194 1.4536 1.8665 2.2723s1.01 1.6832 1.3858 2.5936c0.37842 0.91044 0.66223 1.8489 0.854 2.8155 0.19177 0.964 0.28893 1.9407 0.28893 2.9251z" fill="none" stroke="#656565"/>
<g fill="#323232">
<use x="755.561775" y="108.03677" xlink:href="#m"/>
</g>
<g fill="#323232">
<use x="767.783663" y="112.631903" xlink:href="#ad"/>
</g>
<path d="m728.89 225.21c0 1.5117-0.14844 3.0039-0.44141 4.4844-0.29297 1.4805-0.73047 2.918-1.3047 4.3086-0.57422 1.3945-1.2812 2.7188-2.1172 3.9727-0.83594 1.2539-1.7852 2.4141-2.8516 3.4844-1.0625 1.0664-2.2188 2.0156-3.4727 2.8555-1.25 0.83984-2.5703 1.5469-3.9609 2.125-1.3906 0.57422-2.8242 1.0117-4.2969 1.3047-1.4766 0.29688-2.9688 0.44141-4.4727 0.44141s-2.9961-0.14453-4.4688-0.44141c-1.4766-0.29297-2.9102-0.73047-4.3008-1.3047-1.3906-0.57812-2.7109-1.2852-3.9609-2.125s-2.4102-1.7891-3.4727-2.8555c-1.0625-1.0703-2.0156-2.2305-2.8516-3.4844-0.83594-1.2539-1.5391-2.5781-2.1172-3.9727-0.57422-1.3906-1.0117-2.8281-1.3047-4.3086-0.29297-1.4805-0.4375-2.9727-0.4375-4.4844 0-1.5078 0.14453-3 0.4375-4.4805 0.29297-1.4805 0.73047-2.918 1.3047-4.3086 0.57812-1.3945 1.2812-2.7188 2.1172-3.9727 0.83594-1.2539 1.7891-2.4141 2.8516-3.4844 1.0625-1.0664 2.2227-2.0156 3.4727-2.8555s2.5703-1.5469 3.9609-2.125c1.3906-0.57422 2.8242-1.0117 4.3008-1.3047 1.4727-0.29688 2.9648-0.44141 4.4688-0.44141s2.9961 0.14453 4.4727 0.44141c1.4727 0.29297 2.9062 0.73047 4.2969 1.3047 1.3906 0.57812 2.7109 1.2852 3.9609 2.125 1.2539 0.83984 2.4102 1.7891 3.4727 2.8555 1.0664 1.0703 2.0156 2.2305 2.8516 3.4844 0.83594 1.2539 1.543 2.5781 2.1172 3.9727 0.57422 1.3906 1.0117 2.8281 1.3047 4.3086s0.44141 2.9727 0.44141 4.4805z" fill="#f5f5f5"/>
<path transform="matrix(1.5277 0 0 1.5317 36.428 1.5829)" d="m453.26 146c0 0.98695-0.097162 1.9611-0.28893 2.9277-0.19177 0.96655-0.47558 1.905-0.854 2.8129-0.37586 0.91044-0.83866 1.775-1.3858 2.5936s-1.1685 1.5761-1.8665 2.2723c-0.69547 0.69877-1.4523 1.3185-2.2731 1.8668-0.8182 0.5483-1.6824 1.0099-2.5927 1.3873-0.91025 0.37489-1.8486 0.66052-2.8126 0.85178-0.9665 0.19382-1.9432 0.28818-2.9276 0.28818s-1.9611-0.094359-2.9251-0.28818c-0.9665-0.19127-1.9049-0.4769-2.8151-0.85178-0.91025-0.37744-1.7745-0.83903-2.5927-1.3873s-1.5776-1.168-2.2731-1.8668c-0.69547-0.69622-1.3194-1.4536-1.8665-2.2723s-1.0074-1.6832-1.3858-2.5936c-0.37586-0.90789-0.65968-1.8464-0.854-2.8129-0.19177-0.96654-0.28637-1.9407-0.28637-2.9277 0-0.9844 0.094605-1.9586 0.28637-2.9251 0.19432-0.96655 0.47814-1.905 0.854-2.8129 0.37842-0.91044 0.83866-1.775 1.3858-2.5936s1.1711-1.5786 1.8665-2.2748c0.69547-0.69622 1.4549-1.3185 2.2731-1.8642 0.8182-0.5483 1.6824-1.0099 2.5927-1.3873 0.91025-0.37489 1.8486-0.66052 2.8151-0.85178 0.96395-0.19382 1.9407-0.28818 2.9251-0.28818s1.9611 0.094359 2.9276 0.28818c0.96395 0.19127 1.9023 0.4769 2.8126 0.85178 0.91025 0.37744 1.7745 0.83903 2.5927 1.3873 0.82076 0.54575 1.5776 1.168 2.2731 1.8642 0.69803 0.69622 1.3194 1.4562 1.8665 2.2748s1.01 1.6832 1.3858 2.5936c0.37842 0.90789 0.66223 1.8464 0.854 2.8129 0.19177 0.96654 0.28893 1.9407 0.28893 2.9251z" fill="none" stroke="#656565"/>
<g fill="#323232">
<use x="694.452335" y="230.57365" xlink:href="#m"/>
</g>
<g fill="#323232">
<use x="706.674223" y="235.168783" xlink:href="#ac"/>
</g>
<path transform="matrix(1.5277 0 0 1.5317 36.428 1.5829)" d="m385.26 81.33c1.9995 26.446 13.347 47.06 34.04 61.841" fill="none" stroke="#b46403" stroke-miterlimit="10"/>
<path transform="matrix(1.5277 0 0 1.5317 36.428 1.5829)" d="m422.35 145.35-5.5203-0.87219 2.47-1.3083 0.42956-2.7594z" fill="#b46403" stroke="#b46403" stroke-miterlimit="10"/>
<path transform="matrix(1.5277 0 0 1.5317 36.428 1.5829)" d="m434.6 132.32c-0.89491-20.879-11.48-38.511-31.762-52.9" fill="none" stroke="#b46403" stroke-miterlimit="10"/>
<path transform="matrix(1.5277 0 0 1.5317 36.428 1.5829)" d="m399.78 77.249 5.5178 0.86199-2.4597 1.3083-0.42956 2.7696z" fill="#b46403" stroke="#b46403" stroke-miterlimit="10"/>
<path transform="matrix(1.5277 0 0 1.5317 36.428 1.5829)" d="m452.27 140.99c21.994-13.328 32.989-32.37 32.981-57.131" fill="none" stroke="#b46403" stroke-miterlimit="10"/>
<path transform="matrix(1.5277 0 0 1.5317 36.428 1.5829)" d="m485.25 80.111 2.5006 4.9985-2.5006-1.2496-2.5006 1.2496z" fill="#b46403" stroke="#b46403" stroke-miterlimit="10"/>
<path transform="matrix(1.5277 0 0 1.5317 36.428 1.5829)" d="m467.65 76.609c-14.927 16.26-23.505 32.455-25.73 48.58" fill="none" stroke="#b46403" stroke-miterlimit="10"/>
<path transform="matrix(1.5277 0 0 1.5317 36.428 1.5829)" d="m441.41 128.9-1.7898-5.2892 2.3012 1.5786 2.6489-0.89769z" fill="#b46403" stroke="#b46403" stroke-miterlimit="10"/>
<g clip-path="url(#bt)">
<path transform="matrix(1.5277 0 0 1.5317 36.428 1.5829)" d="m467.65 55.391c-22.928-9.5941-44.357-10.221-64.29-1.8821" fill="none" stroke="#b46403" stroke-miterlimit="10"/>
</g>
<path d="m647.37 85.766 5.5742-6.4805-0.28906 4.2578 3.2383 2.8047z" fill="#b46403"/>
<g clip-path="url(#bs)">
<path transform="matrix(1.5277 0 0 1.5317 36.428 1.5829)" d="m399.9 54.96 3.6487-4.2309-0.18921 2.7798 2.1197 1.8311z" fill="none" stroke="#b46403" stroke-miterlimit="10"/>
</g>
<path transform="matrix(1.5277 0 0 1.5317 36.428 1.5829)" d="m403.26 66c20 9.9995 38.55 10.726 55.648 2.1805" fill="none" stroke="#b46403" stroke-miterlimit="10"/>
<path transform="matrix(1.5277 0 0 1.5317 36.428 1.5829)" d="m462.26 66.5-3.3521 4.4706v-2.79l-2.2398-1.6806z" fill="#b46403" stroke="#b46403" stroke-miterlimit="10"/>
<g>
<use x="644.4645" y="225" xlink:href="#c"/>
</g>
<g>
<use x="650.4645" y="229" xlink:href="#g"/>
<use x="657.4641" y="229" xlink:href="#f"/>
</g>
<g>
<use x="658.5849" y="125" xlink:href="#c"/>
</g>
<g>
<use x="665.5849" y="129" xlink:href="#f"/>
<use x="672.5845" y="129" xlink:href="#g"/>
</g>
<g>
<use x="653.6191" y="174" xlink:href="#l"/>
</g>
<g>
<use x="661.6191" y="178" xlink:href="#g"/>
<use x="668.6187" y="178" xlink:href="#f"/>
</g>
<g>
<use x="734.6539" y="170" xlink:href="#l"/>
</g>
<g>
<use x="742.6539" y="174" xlink:href="#e"/>
<use x="749.6535" y="174" xlink:href="#f"/>
</g>
<g>
<use x="689.2419" y="98" xlink:href="#l"/>
</g>
<g>
<use x="697.2419" y="102" xlink:href="#g"/>
<use x="704.2415" y="102" xlink:href="#e"/>
</g>
<g>
<use x="720.3785" y="124" xlink:href="#c"/>
</g>
<g>
<use x="726.3785" y="128" xlink:href="#g"/>
<use x="733.3781" y="128" xlink:href="#e"/>
</g>
<g>
<use x="654.4934" y="73" xlink:href="#c"/>
</g>
<g>
<use x="661.4934" y="77" xlink:href="#e"/>
<use x="668.493" y="77" xlink:href="#g"/>
</g>
<g>
<use x="695.0291" y="170" xlink:href="#c"/>
</g>
<g>
<use x="702.0291" y="174" xlink:href="#e"/>
<use x="709.0287" y="174" xlink:href="#f"/>
</g>
<g>
<use x="787.2715" y="139" xlink:href="#c"/>
</g>
<g>
<use x="794.2715" y="143" xlink:href="#f"/>
<use x="801.2711" y="143" xlink:href="#e"/>
</g>
<path d="m680.16 174.54c-3.0625 9.4766-13.227 14.676-22.699 11.613-9.4766-3.0625-14.676-13.227-11.613-22.699 3.0625-9.4766 13.227-14.676 22.699-11.613 5.7617 1.8594 10.203 6.4883 11.828 12.316l2.9336-0.003906-3.0898 4.8086-4.4805-4.793 2.9336-0.007813c-2.6719-8.6523-11.852-13.504-20.504-10.832-8.6523 2.6719-13.504 11.852-10.832 20.504 2.6719 8.6523 11.852 13.504 20.504 10.832 5.1055-1.5781 9.125-5.543 10.766-10.625z" fill="#538234"/>
<path d="m762.07 172.18c-3.1367 9.7031-13.543 15.027-23.242 11.891-9.7031-3.1367-15.027-13.543-11.891-23.242 3.1367-9.7031 13.543-15.027 23.242-11.891 5.8984 1.9062 10.445 6.6445 12.109 12.613l3.0039-0.007813-3.1641 4.9219-4.5859-4.9062 3-0.003907c-2.7344-8.8594-12.129-13.824-20.988-11.09-8.8594 2.7344-13.824 12.129-11.09 20.988 2.7344 8.8594 12.129 13.824 20.988 11.09 5.2305-1.6133 9.3438-5.6719 11.023-10.879z" fill="#538234"/>
<path d="m714.48 100.16c-2.7695 9.0859-12.168 14.141-20.988 11.289-8.8242-2.8516-13.73-12.527-10.965-21.617 2.7695-9.0859 12.168-14.141 20.988-11.289 5.4531 1.7617 9.6562 6.2695 11.152 11.949l2.7266-0.003906-2.9062 4.4727-4.1211-4.4609 2.7266-0.003906c-2.4062-8.3242-10.891-13.055-18.945-10.566-8.0586 2.4844-12.641 11.246-10.234 19.566 2.4062 8.3242 10.891 13.055 18.949 10.566 4.8477-1.4961 8.6602-5.3828 10.172-10.371z" fill="#538234"/>
<g>
<use x="175.697649" y="109.108489" xlink:href="#ab"/>
</g>
<g>
<use x="185.429132" y="112.074736" xlink:href="#aa"/>
</g>
<g>
<use x="194.989012" y="114.052235" xlink:href="#bq"/>
</g>
<g>
<use x="174.968239" y="179.530299" xlink:href="#bo"/>
</g>
<g>
<use x="184.867506" y="182.498532" xlink:href="#bn"/>
</g>
<g>
<use x="194.59221" y="184.47603" xlink:href="#bm"/>
</g>
<g>
<use x="176.252149" y="248.835495" xlink:href="#ab"/>
</g>
<g>
<use x="185.983632" y="251.803727" xlink:href="#aa"/>
</g>
<g>
<use x="195.543512" y="253.781226" xlink:href="#bp"/>
</g>
<g clip-path="url(#br)">
<path d="m37.48 20.703h771.5v262.63h-771.5z" fill="#fff"/>
</g>
<g>
<use x="638.642846" y="46.361596" xlink:href="#bl"/>
</g>
<g>
<use x="655.278669" y="46.361596" xlink:href="#bi"/>
</g>
<g>
<use x="663.602997" y="46.361596" xlink:href="#bh"/>
</g>
<g>
<use x="675.499171" y="46.361596" xlink:href="#bg"/>
</g>
<g>
<use x="688.563148" y="46.361596" xlink:href="#bf"/>
</g>
<g>
<use x="701.627124" y="46.361596" xlink:href="#be"/>
</g>
<g>
<use x="707.568794" y="46.361596" xlink:href="#bd"/>
</g>
<g>
<use x="720.632771" y="46.361596" xlink:href="#z"/>
<use x="727.755076" y="46.361596" xlink:href="#z"/>
<use x="734.877381" y="46.361596" xlink:href="#bc"/>
</g>
<g>
<use x="740.819052" y="46.361596" xlink:href="#bk"/>
</g>
<g>
<use x="753.883028" y="46.361596" xlink:href="#bj"/>
</g>
</svg>
